<svg width="58" height="30" viewBox="0 0 58 30" fill="none" xmlns="http://www.w3.org/2000/svg">
<path d="M33.8679 21.8572C32.7043 23.0748 31.4691 24.481 30.6382 25.7404C30.2235 26.369 29.9018 26.9723 29.744 27.5048C29.5875 28.0324 29.5791 28.5372 29.8649 28.9177L29.865 28.9179C30.1476 29.2936 30.6265 29.4271 31.1666 29.4271C31.9947 29.4271 33.0882 29.1155 34.2387 28.6685C35.3955 28.2191 36.6334 27.6231 37.7589 27.0351C39.7698 25.9864 42.0229 24.6549 44.4563 23.0774L44.4596 23.0753L44.4596 23.0753L47.8095 20.8107L47.8143 20.8074L47.8142 20.8074L48.9944 19.9596L48.9952 19.959C51.7674 17.9459 54.4133 15.9908 56.8585 14.1458L57.1129 13.9546L57.3502 13.7761L57.098 13.6194L56.8271 13.4511L56.8271 13.451C54.0155 11.7046 51.2055 9.99143 48.475 8.35944L48.4727 8.35805L48.4727 8.35807L45.6518 6.72243L45.6465 6.71938L45.6465 6.71946L43.6844 5.65894L43.6826 5.658L43.6826 5.65801C41.1097 4.29966 38.7478 3.17299 36.6589 2.30859C35.103 1.66424 33.3451 1.02215 31.8704 0.703952C31.1343 0.545122 30.4554 0.463936 29.9019 0.509744C29.3533 0.555143 28.8798 0.73032 28.6285 1.13463L28.6285 1.13466C28.3774 1.53885 28.4305 2.04074 28.633 2.55231C28.8375 3.06853 29.2113 3.64089 29.6801 4.23019C30.6192 5.41082 31.974 6.70205 33.2409 7.81176L33.241 7.81184C34.414 8.83826 35.7865 9.94729 37.3338 11.119C33.6836 10.7767 29.5675 10.597 25.3248 10.597C19.3944 10.597 13.2735 10.9662 8.63121 11.6791C6.31183 12.0352 4.35083 12.4787 2.96503 13.0093C2.27309 13.2742 1.71191 13.5656 1.32021 13.8876C0.929184 14.209 0.681816 14.5831 0.681816 15.0107C0.681816 15.4382 0.929184 15.8123 1.32022 16.1337C1.71192 16.4557 2.2731 16.747 2.96504 17.0119C4.35084 17.5425 6.31184 17.9858 8.63123 18.3419C13.2735 19.0545 19.3944 19.4235 25.3248 19.4235C29.357 19.4235 33.3067 19.2588 36.8341 18.9459M33.8679 21.8572C33.8679 21.8572 33.8679 21.8572 33.8679 21.8572L34.0149 21.9976L33.8679 21.8572ZM33.8679 21.8572C34.7361 20.9481 35.7308 19.9721 36.8341 18.9459M36.8341 18.9459C36.9449 18.936 37.0553 18.926 37.1653 18.9159L37.6438 11.3528C33.9201 10.9908 29.6902 10.8002 25.3248 10.8002C13.4771 10.8002 0.885098 12.2761 0.885098 15.0107C0.885098 17.7453 13.4771 19.2203 25.3248 19.2203C29.452 19.2203 33.4916 19.0475 37.078 18.7198C36.9961 18.7954 36.9148 18.8708 36.8341 18.9459ZM44.3457 22.9069L47.6956 20.6423L44.3457 22.9069ZM37.3689 26.2868L37.369 26.2868C39.353 25.2514 41.5827 23.9338 43.9951 22.3702C43.9954 22.37 43.9956 22.3698 43.9959 22.3697L45.847 21.1461L48.4999 19.2754C48.5003 19.2751 48.5007 19.2748 48.5011 19.2746C51.0832 17.3993 53.5557 15.5745 55.8577 13.8425C53.2257 12.2121 50.599 10.6127 48.0438 9.08465C48.0436 9.08457 48.0435 9.08448 48.0434 9.0844L46.2389 8.01674L43.2847 6.40228C40.735 5.05623 38.3973 3.94162 36.336 3.08935L36.3359 3.0893C33.3416 1.84906 31.6004 1.42813 30.5949 1.34756C29.5874 1.26684 29.3765 1.52966 29.3446 1.58016C29.3145 1.62916 29.1721 1.93352 29.6922 2.80172C30.2108 3.66732 31.3602 5.04177 33.7976 7.17605L33.7976 7.17611C35.2509 8.44974 37.0219 9.85526 39.0602 11.3543L39.7173 11.8371L40.3288 12.2864L39.5745 12.2029L38.7636 12.1132C34.7875 11.6741 30.1402 11.4411 25.3248 11.4411C18.1539 11.4411 12.1653 11.9283 7.97373 12.6414C5.87645 12.9982 4.2376 13.4101 3.12766 13.842C2.57158 14.0584 2.15952 14.2755 1.89016 14.4857C1.61546 14.7001 1.52592 14.8775 1.52592 15.0107C1.52592 15.1439 1.61546 15.3212 1.89016 15.5356C2.15951 15.7458 2.57156 15.9629 3.12764 16.1792C4.23759 16.611 5.87644 17.0228 7.97372 17.3795C12.1653 18.0924 18.1539 18.5794 25.3248 18.5794C29.8158 18.5794 34.2004 18.3746 38.003 17.9866L38.6653 17.9191L39.28 17.8564L38.8226 18.2718L38.3295 18.7196L38.3294 18.7197C36.864 20.0477 35.5687 21.2997 34.478 22.4406C32.2397 24.7825 31.217 26.2536 30.7775 27.1619C30.3354 28.0755 30.5065 28.3653 30.5404 28.4103L30.5404 28.4104C30.5739 28.455 30.8041 28.7003 31.8043 28.5299C32.7987 28.3605 34.4962 27.7871 37.3689 26.2868Z" fill="#333B41" stroke="#333B41" stroke-width="0.406563"/>
</svg>
