<?xml version="1.0" encoding="UTF-8"?>
<svg xmlns="http://www.w3.org/2000/svg" xmlns:xlink="http://www.w3.org/1999/xlink" viewBox="0 0 24 24" width="24px" height="24px">
<g id="surface250784646">
<path style=" stroke:none;fill-rule:nonzero;fill:rgb(76.862746%,76.862746%,76.862746%);fill-opacity:1;" d="M 12 2 C 6.476562 2 2 6.476562 2 12 C 2 17.011719 5.691406 21.152344 10.503906 21.875 L 10.503906 14.648438 L 8.03125 14.648438 L 8.03125 12.019531 L 10.503906 12.019531 L 10.503906 10.273438 C 10.503906 7.375 11.914062 6.105469 14.324219 6.105469 C 15.476562 6.105469 16.085938 6.191406 16.375 6.230469 L 16.375 8.523438 L 14.730469 8.523438 C 13.710938 8.523438 13.351562 9.492188 13.351562 10.585938 L 13.351562 12.019531 L 16.347656 12.019531 L 15.941406 14.648438 L 13.355469 14.648438 L 13.355469 21.898438 C 18.234375 21.234375 22 17.0625 22 12 C 22 6.476562 17.523438 2 12 2 Z M 12 2 "/>
</g>
</svg>
