<svg width="58" height="31" viewBox="0 0 58 31" fill="none" xmlns="http://www.w3.org/2000/svg">
<path d="M4.30173 6.9559H1.36502V5.77064H4.30173C4.87046 5.77064 5.33097 5.68005 5.68327 5.49886C6.03558 5.31768 6.29226 5.06603 6.45331 4.74393C6.6194 4.42182 6.70244 4.05441 6.70244 3.64171C6.70244 3.26424 6.6194 2.90942 6.45331 2.57725C6.29226 2.24508 6.03558 1.97833 5.68327 1.77701C5.33097 1.57066 4.87046 1.46749 4.30173 1.46749H1.70474V11.2666H0.24771V0.274684H4.30173C5.13217 0.274684 5.83426 0.418122 6.40802 0.704999C6.98177 0.991876 7.41712 1.38948 7.71406 1.8978C8.011 2.4011 8.15948 2.97737 8.15948 3.62661C8.15948 4.33123 8.011 4.93266 7.71406 5.43092C7.41712 5.92918 6.98177 6.30917 6.40802 6.57088C5.83426 6.82756 5.13217 6.9559 4.30173 6.9559ZM13.0741 11.4176C12.5054 11.4176 11.9895 11.322 11.5265 11.1307C11.0685 10.9344 10.6734 10.6601 10.3413 10.3078C10.0141 9.95552 9.76246 9.53779 9.58631 9.05463C9.41016 8.57147 9.32208 8.04301 9.32208 7.46926V7.15218C9.32208 6.48784 9.42022 5.89647 9.61651 5.37807C9.81279 4.85465 10.0795 4.41175 10.4167 4.04938C10.754 3.68701 11.1365 3.41272 11.5643 3.2265C11.9921 3.04028 12.4349 2.94717 12.8929 2.94717C13.4768 2.94717 13.9801 3.04783 14.4028 3.24915C14.8306 3.45046 15.1804 3.73231 15.4522 4.09468C15.724 4.45202 15.9253 4.87478 16.0561 5.36298C16.187 5.84614 16.2524 6.37459 16.2524 6.94835V7.57495H10.1525V6.43499H14.8558V6.3293C14.8357 5.96693 14.7602 5.61462 14.6293 5.27238C14.5035 4.93014 14.3022 4.6483 14.0254 4.42685C13.7485 4.2054 13.3711 4.09468 12.8929 4.09468C12.5759 4.09468 12.284 4.16262 12.0172 4.29851C11.7505 4.42937 11.5215 4.62565 11.3302 4.88736C11.139 5.14908 10.9905 5.46867 10.8848 5.84614C10.7791 6.22361 10.7263 6.65895 10.7263 7.15218V7.46926C10.7263 7.85679 10.7791 8.22168 10.8848 8.56392C10.9955 8.90112 11.1541 9.19807 11.3604 9.45475C11.5718 9.71143 11.826 9.91274 12.1229 10.0587C12.4249 10.2047 12.7671 10.2776 13.1496 10.2776C13.6429 10.2776 14.0606 10.177 14.4028 9.97566C14.7451 9.77434 15.0445 9.50508 15.3012 9.16787L16.1467 9.83977C15.9706 10.1065 15.7466 10.3607 15.4748 10.6023C15.2031 10.8438 14.8684 11.0401 14.4708 11.1911C14.0782 11.3421 13.6127 11.4176 13.0741 11.4176ZM21.303 3.09816V4.17017H16.8866V3.09816H21.303ZM18.3814 1.11267H19.778V9.24336C19.778 9.52018 19.8208 9.72904 19.9063 9.86996C19.9919 10.0109 20.1026 10.104 20.2385 10.1493C20.3744 10.1946 20.5203 10.2172 20.6764 10.2172C20.7921 10.2172 20.9129 10.2072 21.0387 10.187C21.1696 10.1619 21.2677 10.1417 21.3332 10.1266L21.3407 11.2666C21.23 11.3018 21.084 11.3345 20.9029 11.3647C20.7267 11.4 20.5128 11.4176 20.2612 11.4176C19.9189 11.4176 19.6044 11.3496 19.3175 11.2138C19.0306 11.0779 18.8016 10.8514 18.6305 10.5343C18.4644 10.2122 18.3814 9.77937 18.3814 9.23581V1.11267ZM29.0109 8.48842C29.0109 8.23175 28.9706 8.00526 28.8901 7.80898C28.8146 7.60766 28.6787 7.42648 28.4824 7.26542C28.2912 7.10437 28.0244 6.95086 27.6822 6.80491C27.345 6.65895 26.9172 6.51048 26.3988 6.3595C25.8553 6.19844 25.3645 6.01977 24.9267 5.82349C24.4888 5.62217 24.1139 5.39317 23.8018 5.13649C23.4898 4.87981 23.2507 4.58539 23.0846 4.25321C22.9185 3.92104 22.8355 3.54106 22.8355 3.11326C22.8355 2.68546 22.9236 2.29037 23.0997 1.928C23.2759 1.56563 23.5275 1.25107 23.8547 0.984327C24.1868 0.712549 24.5819 0.501166 25.0399 0.350178C25.4979 0.19919 26.0088 0.123696 26.5724 0.123696C27.3978 0.123696 28.0974 0.282233 28.6712 0.599308C29.25 0.91135 29.6903 1.32153 29.9923 1.82986C30.2943 2.33315 30.4453 2.87168 30.4453 3.44543H28.9958C28.9958 3.03273 28.9077 2.66784 28.7316 2.35077C28.5554 2.02866 28.2887 1.77701 27.9313 1.59583C27.574 1.40961 27.121 1.3165 26.5724 1.3165C26.0541 1.3165 25.6263 1.39451 25.2891 1.55053C24.9518 1.70655 24.7002 1.91794 24.5341 2.18468C24.3731 2.45143 24.2925 2.75592 24.2925 3.09816C24.2925 3.32967 24.3403 3.54106 24.436 3.73231C24.5366 3.91852 24.6901 4.09216 24.8965 4.25321C25.1079 4.41427 25.3746 4.56274 25.6967 4.69863C26.0239 4.83452 26.4139 4.96537 26.8669 5.0912C27.491 5.26735 28.0295 5.46363 28.4824 5.68005C28.9354 5.89647 29.3078 6.14056 29.5998 6.41234C29.8967 6.67909 30.1156 6.98358 30.2566 7.32582C30.4025 7.66302 30.4755 8.04553 30.4755 8.47333C30.4755 8.92126 30.3849 9.32641 30.2037 9.68878C30.0225 10.0511 29.7633 10.3607 29.4261 10.6174C29.0889 10.874 28.6838 11.0728 28.2107 11.2138C27.7426 11.3496 27.2192 11.4176 26.6404 11.4176C26.1321 11.4176 25.6313 11.3471 25.1381 11.2062C24.6499 11.0653 24.2045 10.8539 23.8018 10.5721C23.4042 10.2902 23.0846 9.94294 22.843 9.53024C22.6065 9.11251 22.4882 8.62935 22.4882 8.08076H23.9377C23.9377 8.45823 24.0107 8.78285 24.1566 9.05463C24.3026 9.32137 24.5014 9.54282 24.753 9.71898C25.0097 9.89513 25.2991 10.026 25.6212 10.1115C25.9484 10.1921 26.2881 10.2323 26.6404 10.2323C27.1487 10.2323 27.579 10.1619 27.9313 10.021C28.2836 9.88003 28.5504 9.67871 28.7316 9.417C28.9178 9.15529 29.0109 8.84576 29.0109 8.48842ZM35.5411 3.09816V4.17017H31.1247V3.09816H35.5411ZM32.6195 1.11267H34.0161V9.24336C34.0161 9.52018 34.0589 9.72904 34.1445 9.86996C34.23 10.0109 34.3408 10.104 34.4767 10.1493C34.6126 10.1946 34.7585 10.2172 34.9145 10.2172C35.0303 10.2172 35.1511 10.2072 35.2769 10.187C35.4078 10.1619 35.5059 10.1417 35.5713 10.1266L35.5789 11.2666C35.4681 11.3018 35.3222 11.3345 35.141 11.3647C34.9649 11.4 34.751 11.4176 34.4993 11.4176C34.1571 11.4176 33.8425 11.3496 33.5556 11.2138C33.2688 11.0779 33.0398 10.8514 32.8686 10.5343C32.7026 10.2122 32.6195 9.77937 32.6195 9.23581V1.11267ZM36.6584 7.27297V7.09934C36.6584 6.51048 36.744 5.96441 36.9151 5.46112C37.0862 4.95279 37.3329 4.51241 37.655 4.13997C37.9771 3.7625 38.3671 3.47059 38.8251 3.26424C39.2831 3.05286 39.7965 2.94717 40.3652 2.94717C40.9389 2.94717 41.4548 3.05286 41.9128 3.26424C42.3758 3.47059 42.7684 3.7625 43.0905 4.13997C43.4177 4.51241 43.6668 4.95279 43.8379 5.46112C44.009 5.96441 44.0946 6.51048 44.0946 7.09934V7.27297C44.0946 7.86182 44.009 8.4079 43.8379 8.91119C43.6668 9.41448 43.4177 9.85486 43.0905 10.2323C42.7684 10.6048 42.3784 10.8967 41.9204 11.1081C41.4674 11.3144 40.954 11.4176 40.3803 11.4176C39.8065 11.4176 39.2907 11.3144 38.8327 11.1081C38.3747 10.8967 37.9821 10.6048 37.655 10.2323C37.3329 9.85486 37.0862 9.41448 36.9151 8.91119C36.744 8.4079 36.6584 7.86182 36.6584 7.27297ZM38.0551 7.09934V7.27297C38.0551 7.68064 38.1029 8.06566 38.1985 8.42803C38.2941 8.78537 38.4376 9.10244 38.6288 9.37925C38.8251 9.65606 39.0692 9.875 39.3611 10.0361C39.653 10.1921 39.9928 10.2701 40.3803 10.2701C40.7628 10.2701 41.0975 10.1921 41.3844 10.0361C41.6763 9.875 41.9178 9.65606 42.1091 9.37925C42.3004 9.10244 42.4438 8.78537 42.5394 8.42803C42.6401 8.06566 42.6904 7.68064 42.6904 7.27297V7.09934C42.6904 6.6967 42.6401 6.31672 42.5394 5.95938C42.4438 5.59701 42.2978 5.27742 42.1016 5.0006C41.9103 4.71876 41.6687 4.49731 41.3768 4.33626C41.0899 4.1752 40.7527 4.09468 40.3652 4.09468C39.9827 4.09468 39.6455 4.1752 39.3536 4.33626C39.0667 4.49731 38.8251 4.71876 38.6288 5.0006C38.4376 5.27742 38.2941 5.59701 38.1985 5.95938C38.1029 6.31672 38.0551 6.6967 38.0551 7.09934ZM47.2427 4.38155V11.2666H45.8461V3.09816H47.2049L47.2427 4.38155ZM49.7944 3.05286L49.7868 4.35136C49.6711 4.32619 49.5604 4.31109 49.4547 4.30606C49.354 4.29599 49.2382 4.29096 49.1074 4.29096C48.7853 4.29096 48.5009 4.34129 48.2543 4.44195C48.0077 4.54261 47.7988 4.68353 47.6277 4.86472C47.4566 5.0459 47.3207 5.26232 47.22 5.51396C47.1244 5.76058 47.0615 6.03236 47.0313 6.3293L46.6387 6.55578C46.6387 6.06255 46.6865 5.59952 46.7822 5.16669C46.8828 4.73386 47.0363 4.35136 47.2427 4.01918C47.449 3.68198 47.7108 3.42026 48.0278 3.23405C48.3499 3.0428 48.7324 2.94717 49.1753 2.94717C49.276 2.94717 49.3917 2.95975 49.5226 2.98492C49.6535 3.00505 49.7441 3.0277 49.7944 3.05286ZM53.5162 10.4211L55.7886 3.09816H57.2834L54.0069 12.5274C53.9315 12.7287 53.8308 12.9451 53.705 13.1766C53.5842 13.4131 53.4282 13.6371 53.2369 13.8485C53.0457 14.0599 52.8141 14.231 52.5424 14.3619C52.2756 14.4977 51.956 14.5657 51.5836 14.5657C51.4729 14.5657 51.3319 14.5506 51.1608 14.5204C50.9897 14.4902 50.8689 14.465 50.7985 14.4449L50.7909 13.3125C50.8312 13.3175 50.8941 13.3226 50.9796 13.3276C51.0702 13.3377 51.1331 13.3427 51.1684 13.3427C51.4854 13.3427 51.7547 13.2999 51.9762 13.2143C52.1976 13.1338 52.3838 12.9954 52.5348 12.7991C52.6908 12.6079 52.8242 12.3436 52.9349 12.0064L53.5162 10.4211ZM51.8478 3.09816L53.9692 9.43965L54.3316 10.9118L53.3275 11.4251L50.3228 3.09816H51.8478ZM8.10663 26.273V26.0993C8.10663 25.5105 8.19219 24.9644 8.36331 24.4611C8.53443 23.9528 8.78104 23.5124 9.10315 23.14C9.42526 22.7625 9.81531 22.4706 10.2733 22.2642C10.7313 22.0529 11.2447 21.9472 11.8134 21.9472C12.3871 21.9472 12.903 22.0529 13.361 22.2642C13.824 22.4706 14.2166 22.7625 14.5387 23.14C14.8659 23.5124 15.115 23.9528 15.2861 24.4611C15.4572 24.9644 15.5428 25.5105 15.5428 26.0993V26.273C15.5428 26.8618 15.4572 27.4079 15.2861 27.9112C15.115 28.4145 14.8659 28.8549 14.5387 29.2323C14.2166 29.6048 13.8266 29.8967 13.3686 30.1081C12.9156 30.3144 12.4022 30.4176 11.8285 30.4176C11.2547 30.4176 10.7389 30.3144 10.2809 30.1081C9.82286 29.8967 9.43029 29.6048 9.10315 29.2323C8.78104 28.8549 8.53443 28.4145 8.36331 27.9112C8.19219 27.4079 8.10663 26.8618 8.10663 26.273ZM9.50327 26.0993V26.273C9.50327 26.6806 9.55108 27.0657 9.64671 27.428C9.74233 27.7854 9.88577 28.1024 10.077 28.3793C10.2733 28.6561 10.5174 28.875 10.8093 29.0361C11.1012 29.1921 11.4409 29.2701 11.8285 29.2701C12.211 29.2701 12.5457 29.1921 12.8326 29.0361C13.1245 28.875 13.366 28.6561 13.5573 28.3793C13.7485 28.1024 13.892 27.7854 13.9876 27.428C14.0883 27.0657 14.1386 26.6806 14.1386 26.273V26.0993C14.1386 25.6967 14.0883 25.3167 13.9876 24.9594C13.892 24.597 13.746 24.2774 13.5497 24.0006C13.3585 23.7188 13.1169 23.4973 12.825 23.3363C12.5381 23.1752 12.2009 23.0947 11.8134 23.0947C11.4309 23.0947 11.0937 23.1752 10.8018 23.3363C10.5149 23.4973 10.2733 23.7188 10.077 24.0006C9.88577 24.2774 9.74233 24.597 9.64671 24.9594C9.55108 25.3167 9.50327 25.6967 9.50327 26.0993ZM18.6909 23.8421V30.2666H17.2942V22.0982H18.6154L18.6909 23.8421ZM18.3587 25.8729L17.7774 25.8502C17.7824 25.2916 17.8655 24.7757 18.0265 24.3026C18.1876 23.8245 18.4141 23.4092 18.706 23.0569C18.9979 22.7046 19.3452 22.4328 19.7478 22.2416C20.1555 22.0453 20.6059 21.9472 21.0991 21.9472C21.5018 21.9472 21.8641 22.0025 22.1863 22.1133C22.5084 22.2189 22.7827 22.3901 23.0091 22.6266C23.2406 22.8632 23.4168 23.1702 23.5376 23.5476C23.6584 23.9201 23.7188 24.3756 23.7188 24.9141V30.2666H22.3146V24.899C22.3146 24.4712 22.2517 24.1289 22.1259 23.8723C22 23.6106 21.8163 23.4218 21.5747 23.3061C21.3332 23.1853 21.0362 23.1249 20.6839 23.1249C20.3366 23.1249 20.0196 23.1979 19.7327 23.3438C19.4509 23.4898 19.2068 23.6911 19.0004 23.9478C18.7991 24.2044 18.6406 24.4989 18.5248 24.831C18.4141 25.1582 18.3587 25.5055 18.3587 25.8729ZM27.3576 18.6707V30.2666H25.9534V18.6707H27.3576ZM31.1172 22.0982V30.2666H29.713V22.0982H31.1172ZM29.6073 19.9315C29.6073 19.705 29.6752 19.5137 29.8111 19.3577C29.9521 19.2017 30.1584 19.1237 30.4302 19.1237C30.6969 19.1237 30.9008 19.2017 31.0417 19.3577C31.1876 19.5137 31.2606 19.705 31.2606 19.9315C31.2606 20.1479 31.1876 20.3341 31.0417 20.4901C30.9008 20.6411 30.6969 20.7166 30.4302 20.7166C30.1584 20.7166 29.9521 20.6411 29.8111 20.4901C29.6752 20.3341 29.6073 20.1479 29.6073 19.9315ZM34.756 23.8421V30.2666H33.3594V22.0982H34.6805L34.756 23.8421ZM34.4238 25.8729L33.8425 25.8502C33.8475 25.2916 33.9306 24.7757 34.0916 24.3026C34.2527 23.8245 34.4792 23.4092 34.7711 23.0569C35.063 22.7046 35.4103 22.4328 35.8129 22.2416C36.2206 22.0453 36.671 21.9472 37.1642 21.9472C37.5669 21.9472 37.9293 22.0025 38.2514 22.1133C38.5735 22.2189 38.8478 22.3901 39.0742 22.6266C39.3058 22.8632 39.4819 23.1702 39.6027 23.5476C39.7235 23.9201 39.7839 24.3756 39.7839 24.9141V30.2666H38.3797V24.899C38.3797 24.4712 38.3168 24.1289 38.191 23.8723C38.0651 23.6106 37.8814 23.4218 37.6399 23.3061C37.3983 23.1853 37.1013 23.1249 36.749 23.1249C36.4018 23.1249 36.0847 23.1979 35.7978 23.3438C35.516 23.4898 35.2719 23.6911 35.0655 23.9478C34.8642 24.2044 34.7057 24.4989 34.5899 24.831C34.4792 25.1582 34.4238 25.5055 34.4238 25.8729ZM45.2949 30.4176C44.7262 30.4176 44.2103 30.322 43.7473 30.1307C43.2893 29.9344 42.8942 29.6601 42.5621 29.3078C42.2349 28.9555 41.9833 28.5378 41.8071 28.0546C41.631 27.5715 41.5429 27.043 41.5429 26.4693V26.1522C41.5429 25.4878 41.641 24.8965 41.8373 24.3781C42.0336 23.8546 42.3004 23.4118 42.6376 23.0494C42.9748 22.687 43.3573 22.4127 43.7851 22.2265C44.2129 22.0403 44.6558 21.9472 45.1138 21.9472C45.6976 21.9472 46.2009 22.0478 46.6236 22.2491C47.0514 22.4505 47.4012 22.7323 47.673 23.0947C47.9448 23.452 48.1461 23.8748 48.277 24.363C48.4078 24.8461 48.4732 25.3746 48.4732 25.9483V26.5749H42.3733V25.435H47.0766V25.3293C47.0565 24.9669 46.981 24.6146 46.8501 24.2724C46.7243 23.9301 46.523 23.6483 46.2462 23.4269C45.9694 23.2054 45.5919 23.0947 45.1138 23.0947C44.7967 23.0947 44.5048 23.1626 44.238 23.2985C43.9713 23.4294 43.7423 23.6257 43.551 23.8874C43.3598 24.1491 43.2113 24.4687 43.1056 24.8461C42.9999 25.2236 42.9471 25.659 42.9471 26.1522V26.4693C42.9471 26.8568 42.9999 27.2217 43.1056 27.5639C43.2163 27.9011 43.3749 28.1981 43.5812 28.4547C43.7926 28.7114 44.0468 28.9127 44.3437 29.0587C44.6457 29.2047 44.9879 29.2776 45.3704 29.2776C45.8637 29.2776 46.2814 29.177 46.6236 28.9757C46.9659 28.7743 47.2653 28.5051 47.522 28.1679L48.3675 28.8398C48.1914 29.1065 47.9674 29.3607 47.6957 29.6023C47.4239 29.8438 47.0892 30.0401 46.6916 30.1911C46.299 30.3421 45.8335 30.4176 45.2949 30.4176Z" fill="white"/>
<path d="M1.36502 6.9559H0.398698V7.92222H1.36502V6.9559ZM1.36502 5.77064V4.80432H0.398698V5.77064H1.36502ZM6.45331 4.74393L5.59438 4.30104L5.58901 4.31177L6.45331 4.74393ZM6.45331 2.57725L5.58374 2.99886L5.58901 3.0094L6.45331 2.57725ZM5.68327 1.77701L5.19486 2.61088L5.20384 2.61602L5.68327 1.77701ZM1.70474 1.46749V0.501166H0.738421V1.46749H1.70474ZM1.70474 11.2666V12.2329H2.67107V11.2666H1.70474ZM0.24771 11.2666H-0.718612V12.2329H0.24771V11.2666ZM0.24771 0.274684V-0.691638H-0.718612V0.274684H0.24771ZM7.71406 1.8978L6.87966 2.38522L6.8818 2.38884L7.71406 1.8978ZM6.40802 6.57088L6.80264 7.45298L6.80904 7.45006L6.40802 6.57088ZM4.30173 5.98958H1.36502V7.92222H4.30173V5.98958ZM2.33134 6.9559V5.77064H0.398698V6.9559H2.33134ZM1.36502 6.73697H4.30173V4.80432H1.36502V6.73697ZM4.30173 6.73697C4.96172 6.73697 5.58978 6.63357 6.12522 6.3582L5.24133 4.63953C5.07216 4.72653 4.77919 4.80432 4.30173 4.80432V6.73697ZM6.12522 6.3582C6.64089 6.093 7.05552 5.70028 7.31762 5.17608L5.58901 4.31177C5.529 4.43179 5.43027 4.54236 5.24133 4.63953L6.12522 6.3582ZM7.31218 5.18678C7.55813 4.70978 7.66876 4.18694 7.66876 3.64171H5.73612C5.73612 3.92189 5.68066 4.13385 5.59444 4.30107L7.31218 5.18678ZM7.66876 3.64171C7.66876 3.11678 7.55193 2.61371 7.31762 2.1451L5.58901 3.0094C5.68687 3.20513 5.73612 3.41171 5.73612 3.64171H7.66876ZM7.32282 2.15567C7.06839 1.6309 6.66661 1.22596 6.1627 0.938011L5.20384 2.61602C5.40454 2.7307 5.51613 2.85925 5.5838 2.99883L7.32282 2.15567ZM6.17166 0.94319C5.62416 0.622511 4.97784 0.501166 4.30173 0.501166V2.43381C4.76307 2.43381 5.03778 2.51882 5.19489 2.61084L6.17166 0.94319ZM4.30173 0.501166H1.70474V2.43381H4.30173V0.501166ZM0.738421 1.46749V11.2666H2.67107V1.46749H0.738421ZM1.70474 10.3003H0.24771V12.2329H1.70474V10.3003ZM1.21403 11.2666V0.274684H-0.718612V11.2666H1.21403ZM0.24771 1.24101H4.30173V-0.691638H0.24771V1.24101ZM4.30173 1.24101C5.02483 1.24101 5.56985 1.3663 5.97586 1.5693L6.84017 -0.159306C6.09867 -0.530055 5.23951 -0.691638 4.30173 -0.691638V1.24101ZM5.97586 1.5693C6.39747 1.78011 6.68584 2.05341 6.87967 2.38522L8.54845 1.41039C8.14839 0.725546 7.56607 0.203646 6.84017 -0.159306L5.97586 1.5693ZM6.8818 2.38884C7.08149 2.72729 7.19315 3.1304 7.19315 3.62661H9.1258C9.1258 2.82433 8.94052 2.0749 8.54632 1.40677L6.8818 2.38884ZM7.19315 3.62661C7.19315 4.19447 7.07437 4.61673 6.88397 4.93622L8.54415 5.92562C8.94763 5.24859 9.1258 4.46798 9.1258 3.62661H7.19315ZM6.88397 4.93622C6.69646 5.25086 6.41831 5.50408 6.00699 5.6917L6.80904 7.45006C7.54522 7.11426 8.13778 6.6075 8.54415 5.92562L6.88397 4.93622ZM6.0134 5.6888C5.59685 5.87516 5.03776 5.98958 4.30173 5.98958V7.92222C5.22658 7.92222 6.07168 7.77996 6.80263 7.45296L6.0134 5.6888ZM11.5265 11.1307L11.1458 12.019L11.1576 12.0238L11.5265 11.1307ZM10.3413 10.3078L9.63311 10.9654L9.63816 10.9707L10.3413 10.3078ZM9.58631 9.05463L8.67844 9.38562L9.58631 9.05463ZM9.61651 5.37807L10.5202 5.72026L10.5213 5.71737L9.61651 5.37807ZM10.4167 4.04938L9.70933 3.39109L10.4167 4.04938ZM11.5643 3.2265L11.9499 4.11252L11.5643 3.2265ZM14.4028 3.24915L13.9874 4.12161L13.9914 4.12349L14.4028 3.24915ZM15.4522 4.09468L14.6791 4.67448L14.683 4.67966L15.4522 4.09468ZM16.0561 5.36298L15.1228 5.61316L15.1234 5.61559L16.0561 5.36298ZM16.2524 7.57495V8.54127H17.2187V7.57495H16.2524ZM10.1525 7.57495H9.18619V8.54127H10.1525V7.57495ZM10.1525 6.43499V5.46867H9.18619V6.43499H10.1525ZM14.8558 6.43499V7.40131H15.8221V6.43499H14.8558ZM14.8558 6.3293H15.8221V6.30248L15.8206 6.2757L14.8558 6.3293ZM14.6293 5.27238L13.7223 5.60586L13.7267 5.61749L14.6293 5.27238ZM12.0172 4.29851L12.4428 5.16607L12.4494 5.16285L12.4559 5.15954L12.0172 4.29851ZM10.8848 8.56392L9.96151 8.84905L9.96404 8.85724L9.96671 8.86538L10.8848 8.56392ZM11.3604 9.45475L10.6072 10.0602L10.6145 10.069L11.3604 9.45475ZM12.1229 10.0587L11.6966 10.9259L11.7024 10.9287L12.1229 10.0587ZM15.3012 9.16787L15.9024 8.41133L15.1299 7.79748L14.5323 8.58258L15.3012 9.16787ZM16.1467 9.83977L16.9531 10.3723L17.4408 9.63379L16.7479 9.08322L16.1467 9.83977ZM14.4708 11.1911L14.1277 10.2877L14.1239 10.2892L14.4708 11.1911ZM13.0741 10.4513C12.615 10.4513 12.2267 10.3744 11.8954 10.2376L11.1576 12.0238C11.7524 12.2695 12.3959 12.3839 13.0741 12.3839V10.4513ZM11.9072 10.2425C11.5673 10.0969 11.2829 9.89799 11.0443 9.64492L9.63816 10.9707C10.0639 11.4223 10.5697 11.772 11.1459 12.0189L11.9072 10.2425ZM11.0494 9.65029C10.8159 9.39887 10.6293 9.09426 10.4942 8.72364L8.67844 9.38562C8.89562 9.98132 9.21232 10.5122 9.63314 10.9654L11.0494 9.65029ZM10.4942 8.72364C10.3609 8.35809 10.2884 7.94309 10.2884 7.46926H8.35576C8.35576 8.14293 8.45941 8.78485 8.67844 9.38562L10.4942 8.72364ZM10.2884 7.46926V7.15218H8.35576V7.46926H10.2884ZM10.2884 7.15218C10.2884 6.58213 10.3726 6.10999 10.5202 5.72026L8.7128 5.03589C8.4678 5.68294 8.35576 6.39354 8.35576 7.15218H10.2884ZM10.5213 5.71737C10.679 5.29692 10.8834 4.96642 11.1242 4.70767L9.70933 3.39109C9.2757 3.85708 8.94661 4.41238 8.71171 5.03878L10.5213 5.71737ZM11.1242 4.70767C11.3765 4.43649 11.6512 4.24255 11.9499 4.11252L11.1786 2.34048C10.6217 2.58288 10.1314 2.93753 9.70933 3.39109L11.1242 4.70767ZM11.9499 4.11252C12.2584 3.97825 12.5702 3.91349 12.8929 3.91349V1.98085C12.2997 1.98085 11.7257 2.10231 11.1786 2.34048L11.9499 4.11252ZM12.8929 3.91349C13.3676 3.91349 13.7223 3.9954 13.9874 4.1216L14.8183 2.37669C14.2378 2.10026 13.5859 1.98085 12.8929 1.98085V3.91349ZM13.9914 4.12349C14.2829 4.26067 14.5062 4.44393 14.6791 4.67447L16.2252 3.51488C15.8546 3.02068 15.3784 2.64026 14.8143 2.3748L13.9914 4.12349ZM14.683 4.67966C14.8699 4.92532 15.0203 5.23097 15.1228 5.61316L16.9895 5.11279C16.8302 4.51859 16.578 3.97871 16.2213 3.5097L14.683 4.67966ZM15.1234 5.61559C15.229 6.00542 15.2861 6.44773 15.2861 6.94835H17.2187C17.2187 6.30146 17.145 5.68686 16.9889 5.11036L15.1234 5.61559ZM15.2861 6.94835V7.57495H17.2187V6.94835H15.2861ZM16.2524 6.60863H10.1525V8.54127H16.2524V6.60863ZM11.1188 7.57495V6.43499H9.18619V7.57495H11.1188ZM10.1525 7.40131H14.8558V5.46867H10.1525V7.40131ZM15.8221 6.43499V6.3293H13.8895V6.43499H15.8221ZM15.8206 6.2757C15.7949 5.81256 15.6981 5.36197 15.5319 4.92727L13.7267 5.61749C13.8222 5.86727 13.8764 6.1213 13.891 6.3829L15.8206 6.2757ZM15.5363 4.93894C15.3515 4.43626 15.0475 4.00708 14.629 3.67228L13.4217 5.18142C13.5568 5.28952 13.6555 5.42402 13.7223 5.60583L15.5363 4.93894ZM14.629 3.67228C14.1295 3.27268 13.5142 3.12835 12.8929 3.12835V5.061C13.2279 5.061 13.3676 5.13812 13.4217 5.18142L14.629 3.67228ZM12.8929 3.12835C12.4327 3.12835 11.9892 3.22829 11.5786 3.43748L12.4559 5.15954C12.5787 5.09695 12.7191 5.061 12.8929 5.061V3.12835ZM11.5916 3.43096C11.1718 3.6369 10.8251 3.94086 10.55 4.31722L12.1104 5.45751C12.2179 5.31045 12.3291 5.22184 12.4428 5.16607L11.5916 3.43096ZM10.55 4.31722C10.2779 4.68956 10.0848 5.11939 9.95427 5.58559L11.8153 6.10669C11.8962 5.81794 12 5.60859 12.1104 5.45751L10.55 4.31722ZM9.95427 5.58559C9.81964 6.06642 9.75995 6.59248 9.75995 7.15218H11.6926C11.6926 6.72543 11.7386 6.3808 11.8153 6.10669L9.95427 5.58559ZM9.75995 7.15218V7.46926H11.6926V7.15218H9.75995ZM9.75995 7.46926C9.75995 7.94556 9.82506 8.40721 9.96151 8.84905L11.8081 8.27878C11.7332 8.03615 11.6926 7.76802 11.6926 7.46926H9.75995ZM9.96671 8.86538C10.1109 9.3044 10.3226 9.70613 10.6073 10.0602L12.1135 8.84929C11.9855 8.69001 11.8802 8.49785 11.8029 8.26245L9.96671 8.86538ZM10.6145 10.069C10.9128 10.4313 11.2757 10.719 11.6966 10.9259L12.5492 9.19147C12.3762 9.10645 12.2308 8.99159 12.1064 8.84045L10.6145 10.069ZM11.7024 10.9287C12.1528 11.1464 12.642 11.244 13.1496 11.244V9.31131C12.8922 9.31131 12.697 9.26289 12.5434 9.18867L11.7024 10.9287ZM13.1496 11.244C13.7738 11.244 14.37 11.1161 14.8928 10.8086L13.9129 9.14275C13.7512 9.23788 13.5119 9.31131 13.1496 9.31131V11.244ZM14.8928 10.8086C15.3503 10.5394 15.7426 10.1834 16.0701 9.75316L14.5323 8.58258C14.3465 8.82672 14.1398 9.00926 13.9129 9.14275L14.8928 10.8086ZM14.7 9.92441L15.5456 10.5963L16.7479 9.08322L15.9024 8.41133L14.7 9.92441ZM15.3404 9.30726C15.2164 9.49504 15.0503 9.68675 14.8328 9.88002L16.1168 11.3245C16.443 11.0346 16.7248 10.718 16.9531 10.3723L15.3404 9.30726ZM14.8328 9.88002C14.6624 10.0315 14.4338 10.1715 14.1277 10.2877L14.8138 12.0945C15.303 11.9087 15.7437 11.6561 16.1168 11.3245L14.8328 9.88002ZM14.1239 10.2892C13.8682 10.3875 13.5258 10.4513 13.0741 10.4513V12.3839C13.6995 12.3839 14.2882 12.2967 14.8177 12.093L14.1239 10.2892ZM21.303 3.09816H22.2693V2.13183H21.303V3.09816ZM21.303 4.17017V5.13649H22.2693V4.17017H21.303ZM16.8866 4.17017H15.9203V5.13649H16.8866V4.17017ZM16.8866 3.09816V2.13183H15.9203V3.09816H16.8866ZM18.3814 1.11267V0.146344H17.415V1.11267H18.3814ZM19.778 1.11267H20.7443V0.146344H19.778V1.11267ZM21.0387 10.187L21.1914 11.1412L21.2064 11.1388L21.2212 11.136L21.0387 10.187ZM21.3332 10.1266L22.2995 10.1202L22.2915 8.91378L21.1159 9.18507L21.3332 10.1266ZM21.3407 11.2666L21.6337 12.1874L22.3117 11.9717L22.307 11.2602L21.3407 11.2666ZM20.9029 11.3647L20.744 10.4116L20.7286 10.4141L20.7133 10.4172L20.9029 11.3647ZM18.6305 10.5343L17.7716 10.9772L17.7758 10.9852L17.7801 10.9932L18.6305 10.5343ZM20.3366 3.09816V4.17017H22.2693V3.09816H20.3366ZM21.303 3.20385H16.8866V5.13649H21.303V3.20385ZM17.8529 4.17017V3.09816H15.9203V4.17017H17.8529ZM16.8866 4.06448H21.303V2.13183H16.8866V4.06448ZM18.3814 2.07899H19.778V0.146344H18.3814V2.07899ZM18.8117 1.11267V9.24336H20.7443V1.11267H18.8117ZM18.8117 9.24336C18.8117 9.5904 18.8601 10.0087 19.0803 10.3715L20.7323 9.36846C20.7612 9.41606 20.7621 9.43969 20.7567 9.41373C20.7516 9.38871 20.7443 9.33478 20.7443 9.24336H18.8117ZM19.0803 10.3715C19.2657 10.6768 19.5475 10.9376 19.9329 11.066L20.5441 9.23256C20.593 9.24886 20.6385 9.27478 20.6755 9.3059C20.711 9.33579 20.728 9.36134 20.7323 9.36846L19.0803 10.3715ZM19.9329 11.066C20.1757 11.147 20.4257 11.1836 20.6764 11.1836V9.25091C20.615 9.25091 20.573 9.24221 20.5441 9.23256L19.9329 11.066ZM20.6764 11.1836C20.8481 11.1836 21.0201 11.1686 21.1914 11.1412L20.8861 9.23285C20.8058 9.2457 20.7362 9.25091 20.6764 9.25091V11.1836ZM21.2212 11.136C21.3548 11.1103 21.4671 11.0875 21.5505 11.0682L21.1159 9.18507C21.0684 9.19603 20.9844 9.21346 20.8563 9.2381L21.2212 11.136ZM20.3669 10.133L20.3744 11.273L22.307 11.2602L22.2995 10.1202L20.3669 10.133ZM21.0477 10.3458C20.9985 10.3614 20.9026 10.3851 20.744 10.4116L21.0617 12.3179C21.2655 12.284 21.4615 12.2422 21.6337 12.1874L21.0477 10.3458ZM20.7133 10.4172C20.6188 10.4361 20.4724 10.4513 20.2612 10.4513V12.3839C20.5532 12.3839 20.8346 12.3639 21.0924 12.3123L20.7133 10.4172ZM20.2612 10.4513C20.0506 10.4513 19.8788 10.4104 19.7311 10.3405L18.9038 12.0871C19.3299 12.2889 19.7872 12.3839 20.2612 12.3839V10.4513ZM19.7311 10.3405C19.6549 10.3043 19.568 10.2369 19.4809 10.0754L17.7801 10.9932C18.0352 11.4659 18.4064 11.8514 18.9038 12.0871L19.7311 10.3405ZM19.4894 10.0915C19.4204 9.95769 19.3477 9.69596 19.3477 9.23581H17.415C17.415 9.86278 17.5084 10.4667 17.7716 10.9772L19.4894 10.0915ZM19.3477 9.23581V1.11267H17.415V9.23581H19.3477ZM28.8901 7.80898L27.9853 8.14828L27.9905 8.1621L27.9961 8.17575L28.8901 7.80898ZM28.4824 7.26542L27.86 8.00463L27.8695 8.01246L28.4824 7.26542ZM27.6822 6.80491L27.2984 7.69174L27.3031 7.69377L27.6822 6.80491ZM26.3988 6.3595L26.1243 7.28601L26.1286 7.28727L26.3988 6.3595ZM24.9267 5.82349L24.523 6.7015L24.5314 6.70527L24.9267 5.82349ZM23.8018 5.13649L24.4157 4.39021L23.8018 5.13649ZM23.8547 0.984327L24.4653 1.73325L24.4666 1.73222L23.8547 0.984327ZM28.6712 0.599308L28.2038 1.44512L28.2126 1.44989L28.6712 0.599308ZM29.9923 1.82986L29.1615 2.3234L29.1637 2.32703L29.9923 1.82986ZM30.4453 3.44543V4.41175H31.4116V3.44543H30.4453ZM28.9958 3.44543H28.0295V4.41175H28.9958V3.44543ZM28.7316 2.35077L27.8837 2.81443L27.8869 2.82005L28.7316 2.35077ZM27.9313 1.59583L27.4847 2.45282L27.4943 2.45769L27.9313 1.59583ZM24.5341 2.18468L23.7137 1.67387L23.7069 1.68522L24.5341 2.18468ZM24.436 3.73231L23.5717 4.16446L23.5786 4.17825L23.5859 4.19181L24.436 3.73231ZM24.8965 4.25321L24.3019 5.01503L24.3108 5.02186L24.8965 4.25321ZM25.6967 4.69863L25.3211 5.58898L25.326 5.59102L25.6967 4.69863ZM26.8669 5.0912L27.1294 4.1612L27.1255 4.16013L26.8669 5.0912ZM29.5998 6.41234L28.9413 7.11959L28.9476 7.12545L28.954 7.13121L29.5998 6.41234ZM30.2566 7.32582L29.363 7.69375L29.3663 7.70173L29.3697 7.70966L30.2566 7.32582ZM29.4261 10.6174L28.8408 9.84845L29.4261 10.6174ZM28.2107 11.2138L28.4801 12.1418L28.4865 12.1399L28.2107 11.2138ZM25.1381 11.2062L24.8701 12.1346L24.8726 12.1353L25.1381 11.2062ZM23.8018 10.5721L23.243 11.3604L23.2477 11.3637L23.8018 10.5721ZM22.843 9.53024L22.0021 10.0064L22.0091 10.0184L22.843 9.53024ZM22.4882 8.08076V7.11443H21.5219V8.08076H22.4882ZM23.9377 8.08076H24.904V7.11443H23.9377V8.08076ZM24.1566 9.05463L23.3053 9.51184L23.3089 9.51847L24.1566 9.05463ZM24.753 9.71898L24.1989 10.5107L24.2063 10.5157L24.753 9.71898ZM25.6212 10.1115L25.3731 11.0455L25.3817 11.0477L25.3903 11.0499L25.6212 10.1115ZM28.7316 9.417L27.9442 8.85672L27.9371 8.86696L28.7316 9.417ZM29.9772 8.48842C29.9772 8.13169 29.9213 7.77654 29.7841 7.44221L27.9961 8.17575C28.02 8.23399 28.0446 8.3318 28.0446 8.48842H29.9772ZM29.7949 7.46968C29.6497 7.08246 29.3992 6.76767 29.0954 6.51838L27.8695 8.01246C27.9582 8.08528 27.9795 8.13286 27.9853 8.14828L29.7949 7.46968ZM29.1049 6.52627C28.814 6.28134 28.453 6.08312 28.0613 5.91604L27.3031 7.69377C27.5958 7.81861 27.7683 7.92739 27.86 8.00457L29.1049 6.52627ZM28.0661 5.91809C27.6791 5.75061 27.21 5.58928 26.669 5.43173L26.1286 7.28727C26.6244 7.43169 27.0109 7.5673 27.2984 7.69173L28.0661 5.91809ZM26.6733 5.43299C26.1638 5.28202 25.7143 5.1176 25.322 4.94171L24.5314 6.70527C25.0148 6.92194 25.5467 7.11486 26.1243 7.286L26.6733 5.43299ZM25.3303 4.94552C24.9539 4.77244 24.6527 4.58517 24.4157 4.39021L23.1879 5.88277C23.575 6.20118 24.0237 6.4719 24.523 6.70146L25.3303 4.94552ZM24.4157 4.39021C24.1989 4.21189 24.0493 4.02181 23.9489 3.82106L22.2203 4.68537C22.4521 5.14896 22.7806 5.54773 23.1879 5.88277L24.4157 4.39021ZM23.9489 3.82106C23.8595 3.6421 23.8018 3.41388 23.8018 3.11326H21.8692C21.8692 3.66823 21.9776 4.19998 22.2203 4.68537L23.9489 3.82106ZM23.8018 3.11326C23.8018 2.82258 23.8606 2.57313 23.9688 2.35047L22.2306 1.50553C21.9866 2.00762 21.8692 2.54834 21.8692 3.11326H23.8018ZM23.9688 2.35047C24.0806 2.12042 24.2417 1.91557 24.4653 1.73324L23.244 0.235409C22.8133 0.586572 22.4711 1.01084 22.2306 1.50553L23.9688 2.35047ZM24.4666 1.73222C24.6963 1.54428 24.9833 1.38632 25.3425 1.26792L24.7374 -0.56756C24.1805 -0.383992 23.6774 -0.119179 23.2428 0.236435L24.4666 1.73222ZM25.3425 1.26792C25.688 1.15402 26.0946 1.09002 26.5724 1.09002V-0.842626C25.9229 -0.842626 25.3079 -0.755641 24.7374 -0.56756L25.3425 1.26792ZM26.5724 1.09002C27.276 1.09002 27.8056 1.22502 28.2038 1.44507L29.1386 -0.246458C28.3893 -0.66055 27.5197 -0.842626 26.5724 -0.842626V1.09002ZM28.2126 1.44989C28.655 1.68841 28.9588 1.98205 29.1615 2.32339L30.8231 1.33632C30.4219 0.661013 29.8449 0.134291 29.1298 -0.251273L28.2126 1.44989ZM29.1637 2.32703C29.3778 2.68377 29.479 3.051 29.479 3.44543H31.4116C31.4116 2.69235 31.2108 1.98254 30.8209 1.33269L29.1637 2.32703ZM30.4453 2.47911H28.9958V4.41175H30.4453V2.47911ZM29.9621 3.44543C29.9621 2.89145 29.8426 2.36091 29.5763 1.88148L27.8869 2.82005C27.9728 2.97477 28.0295 3.17401 28.0295 3.44543H29.9621ZM29.5794 1.88711C29.3011 1.37818 28.883 0.99494 28.3683 0.733964L27.4943 2.45769C27.6943 2.55909 27.8098 2.67914 27.8838 2.81442L29.5794 1.88711ZM28.3779 0.738886C27.842 0.459601 27.223 0.350178 26.5724 0.350178V2.28282C27.019 2.28282 27.306 2.35962 27.4848 2.45277L28.3779 0.738886ZM26.5724 0.350178C25.9658 0.350178 25.3875 0.440217 24.8833 0.673534L25.6948 2.42753C25.865 2.3488 26.1424 2.28282 26.5724 2.28282V0.350178ZM24.8833 0.673534C24.4069 0.89395 23.9964 1.22001 23.7138 1.67392L25.3544 2.69544C25.404 2.61586 25.4968 2.51916 25.6948 2.42753L24.8833 0.673534ZM23.7069 1.68522C23.446 2.11727 23.3262 2.59773 23.3262 3.09816H25.2589C25.2589 2.9141 25.3001 2.78559 25.3613 2.68414L23.7069 1.68522ZM23.3262 3.09816C23.3262 3.46703 23.4035 3.82815 23.5717 4.16446L25.3003 3.30015C25.2772 3.25396 25.2589 3.19231 25.2589 3.09816H23.3262ZM23.5859 4.19181C23.7631 4.5196 24.0146 4.79075 24.3019 5.01498L25.491 3.49145C25.3656 3.39357 25.3102 3.31745 25.286 3.2728L23.5859 4.19181ZM24.3108 5.02186C24.6035 5.24479 24.9462 5.4308 25.3211 5.58896L26.0723 3.80829C25.803 3.69468 25.6123 3.58374 25.4821 3.48457L24.3108 5.02186ZM25.326 5.59102C25.6993 5.74606 26.1287 5.88905 26.6082 6.02227L27.1255 4.16013C26.6992 4.0417 26.3484 3.92297 26.0674 3.80623L25.326 5.59102ZM26.6044 6.02118C27.1899 6.18647 27.6744 6.36494 28.0659 6.55197L28.899 4.80813C28.3846 4.56233 27.792 4.34823 27.1294 4.16121L26.6044 6.02118ZM28.0659 6.55197C28.4521 6.73651 28.737 6.92935 28.9413 7.11959L30.2582 5.7051C29.8787 5.35178 29.4187 5.05642 28.899 4.80813L28.0659 6.55197ZM28.954 7.13121C29.1517 7.30879 29.2816 7.49591 29.363 7.69375L31.1501 6.95789C30.9497 6.47124 30.6417 6.04938 30.2455 5.69347L28.954 7.13121ZM29.3697 7.70966C29.4553 7.90743 29.5092 8.15609 29.5092 8.47333H31.4418C31.4418 7.93496 31.3497 7.41861 31.1434 6.94197L29.3697 7.70966ZM29.5092 8.47333C29.5092 8.78731 29.4467 9.0421 29.3394 9.25663L31.068 10.1209C31.3231 9.61071 31.4418 9.05521 31.4418 8.47333H29.5092ZM29.3394 9.25663C29.2273 9.48079 29.0661 9.67699 28.8408 9.84845L30.0114 11.3863C30.4606 11.0444 30.8177 10.6215 31.068 10.1209L29.3394 9.25663ZM28.8408 9.84845C28.6104 10.0239 28.3142 10.1746 27.9348 10.2876L28.4865 12.1399C29.0533 11.971 29.5675 11.7242 30.0114 11.3863L28.8408 9.84845ZM27.9412 10.2858C27.5753 10.392 27.1446 10.4513 26.6404 10.4513V12.3839C27.2938 12.3839 27.9099 12.3073 28.4801 12.1418L27.9412 10.2858ZM26.6404 10.4513C26.2227 10.4513 25.8112 10.3935 25.4035 10.2771L24.8726 12.1353C25.4514 12.3007 26.0415 12.3839 26.6404 12.3839V10.4513ZM25.4061 10.2778C25.0166 10.1654 24.6685 9.99916 24.356 9.78042L23.2477 11.3637C23.7404 11.7086 24.2831 11.9652 24.8701 12.1346L25.4061 10.2778ZM24.3606 9.78371C24.0728 9.57969 23.8479 9.334 23.677 9.04207L22.0091 10.0184C22.3214 10.5519 22.7356 11.0007 23.243 11.3604L24.3606 9.78371ZM23.6839 9.05409C23.5407 8.80125 23.4545 8.48662 23.4545 8.08076H21.5219C21.5219 8.77207 21.6723 9.42377 22.0022 10.0064L23.6839 9.05409ZM22.4882 9.04708H23.9377V7.11443H22.4882V9.04708ZM22.9714 8.08076C22.9714 8.5825 23.0688 9.07137 23.3053 9.51182L25.008 8.59744C24.9526 8.49433 24.904 8.33395 24.904 8.08076H22.9714ZM23.3089 9.51847C23.527 9.91699 23.8268 10.2501 24.1989 10.5106L25.3072 8.92733C25.176 8.83551 25.0782 8.72576 25.0044 8.59078L23.3089 9.51847ZM24.2063 10.5157C24.5602 10.7586 24.9519 10.9336 25.3731 11.0455L25.8693 9.17761C25.6463 9.11838 25.4593 9.03165 25.2998 8.92223L24.2063 10.5157ZM25.3903 11.0499C25.7964 11.1498 26.2138 11.1987 26.6404 11.1987V9.26601C26.3624 9.26601 26.1004 9.23432 25.8522 9.17323L25.3903 11.0499ZM26.6404 11.1987C27.2323 11.1987 27.7922 11.1174 28.2902 10.9182L27.5725 9.12374C27.3659 9.20638 27.0651 9.26601 26.6404 9.26601V11.1987ZM28.2902 10.9182C28.7843 10.7205 29.2176 10.4126 29.5261 9.96704L27.9371 8.86696C27.8832 8.94481 27.783 9.03953 27.5725 9.12374L28.2902 10.9182ZM29.5189 9.97723C29.8345 9.53366 29.9772 9.02294 29.9772 8.48842H28.0446C28.0446 8.66858 28.001 8.77692 27.9442 8.85677L29.5189 9.97723ZM35.5411 3.09816H36.5074V2.13183H35.5411V3.09816ZM35.5411 4.17017V5.13649H36.5074V4.17017H35.5411ZM31.1247 4.17017H30.1584V5.13649H31.1247V4.17017ZM31.1247 3.09816V2.13183H30.1584V3.09816H31.1247ZM32.6195 1.11267V0.146344H31.6532V1.11267H32.6195ZM34.0161 1.11267H34.9825V0.146344H34.0161V1.11267ZM35.2769 10.187L35.4296 11.1412L35.4445 11.1388L35.4594 11.136L35.2769 10.187ZM35.5713 10.1266L36.5376 10.1202L36.5296 8.91378L35.354 9.18507L35.5713 10.1266ZM35.5789 11.2666L35.8719 12.1874L36.5499 11.9717L36.5452 11.2602L35.5789 11.2666ZM35.141 11.3647L34.9821 10.4116L34.9668 10.4141L34.9515 10.4172L35.141 11.3647ZM32.8686 10.5343L32.0098 10.9772L32.0139 10.9852L32.0183 10.9932L32.8686 10.5343ZM34.5748 3.09816V4.17017H36.5074V3.09816H34.5748ZM35.5411 3.20385H31.1247V5.13649H35.5411V3.20385ZM32.0911 4.17017V3.09816H30.1584V4.17017H32.0911ZM31.1247 4.06448H35.5411V2.13183H31.1247V4.06448ZM32.6195 2.07899H34.0161V0.146344H32.6195V2.07899ZM33.0498 1.11267V9.24336H34.9825V1.11267H33.0498ZM33.0498 9.24336C33.0498 9.5904 33.0982 10.0087 33.3185 10.3715L34.9705 9.36846C34.9994 9.41606 35.0002 9.43969 34.9949 9.41373C34.9898 9.38871 34.9825 9.33478 34.9825 9.24336H33.0498ZM33.3185 10.3715C33.5039 10.6768 33.7857 10.9376 34.1711 11.066L34.7822 9.23256C34.8312 9.24886 34.8766 9.27478 34.9136 9.3059C34.9492 9.33579 34.9662 9.36134 34.9705 9.36846L33.3185 10.3715ZM34.1711 11.066C34.4139 11.147 34.6639 11.1836 34.9145 11.1836V9.25091C34.8531 9.25091 34.8112 9.24221 34.7822 9.23256L34.1711 11.066ZM34.9145 11.1836C35.0862 11.1836 35.2582 11.1686 35.4296 11.1412L35.1242 9.23285C35.0439 9.2457 34.9743 9.25091 34.9145 9.25091V11.1836ZM35.4594 11.136C35.5929 11.1103 35.7053 11.0875 35.7886 11.0682L35.354 9.18507C35.3065 9.19603 35.2226 9.21346 35.0944 9.2381L35.4594 11.136ZM34.605 10.133L34.6126 11.273L36.5452 11.2602L36.5376 10.1202L34.605 10.133ZM35.2859 10.3458C35.2366 10.3614 35.1407 10.3851 34.9821 10.4116L35.2999 12.3179C35.5036 12.284 35.6997 12.2422 35.8719 12.1874L35.2859 10.3458ZM34.9515 10.4172C34.857 10.4361 34.7105 10.4513 34.4993 10.4513V12.3839C34.7914 12.3839 35.0727 12.3639 35.3305 12.3123L34.9515 10.4172ZM34.4993 10.4513C34.2888 10.4513 34.117 10.4104 33.9693 10.3405L33.142 12.0871C33.568 12.2889 34.0254 12.3839 34.4993 12.3839V10.4513ZM33.9693 10.3405C33.893 10.3043 33.8062 10.2369 33.719 10.0754L32.0183 10.9932C32.2733 11.4659 32.6445 11.8514 33.142 12.0871L33.9693 10.3405ZM33.7275 10.0915C33.6585 9.95769 33.5858 9.69596 33.5858 9.23581H31.6532C31.6532 9.86278 31.7466 10.4667 32.0098 10.9772L33.7275 10.0915ZM33.5858 9.23581V1.11267H31.6532V9.23581H33.5858ZM36.9151 5.46112L37.83 5.77218L37.8309 5.76941L36.9151 5.46112ZM37.655 4.13997L38.3859 4.77211L38.39 4.76723L37.655 4.13997ZM38.8251 3.26424L39.2221 4.14531L39.2301 4.14163L38.8251 3.26424ZM41.9128 3.26424L41.5078 4.1417L41.5195 4.14688L41.9128 3.26424ZM43.0905 4.13997L42.3554 4.7673L42.3645 4.77769L43.0905 4.13997ZM43.8379 5.46112L42.9221 5.76942L42.923 5.77218L43.8379 5.46112ZM43.8379 8.91119L42.923 8.60013L43.8379 8.91119ZM43.0905 10.2323L42.3603 9.59946L42.3596 9.60021L43.0905 10.2323ZM41.9204 11.1081L42.321 11.9874L42.3253 11.9854L41.9204 11.1081ZM38.8327 11.1081L38.4277 11.9855L38.4357 11.9891L38.8327 11.1081ZM37.655 10.2323L36.9198 10.8597L36.9289 10.8701L37.655 10.2323ZM38.1985 8.42803L37.2642 8.67459L37.265 8.67783L38.1985 8.42803ZM38.6288 9.37925L37.8337 9.92858L37.8406 9.9382L38.6288 9.37925ZM39.3611 10.0361L38.8943 10.8822L38.9056 10.8883L39.3611 10.0361ZM41.3844 10.0361L41.846 10.885L41.8512 10.8821L41.3844 10.0361ZM42.1091 9.37925L42.9041 9.92854L42.1091 9.37925ZM42.5394 8.42803L41.6083 8.16939L41.6059 8.17823L42.5394 8.42803ZM42.5394 5.95938L41.6051 6.20594L41.6071 6.21368L41.6093 6.22138L42.5394 5.95938ZM42.1016 5.0006L41.3019 5.5432L41.3075 5.55143L41.3133 5.55955L42.1016 5.0006ZM41.3768 4.33626L40.9037 5.1789L40.91 5.18235L41.3768 4.33626ZM39.3536 4.33626L38.8868 3.49014L38.8805 3.49364L39.3536 4.33626ZM38.6288 5.0006L37.8359 4.44835L37.8338 4.45132L38.6288 5.0006ZM38.1985 5.95938L39.132 6.20918L39.1329 6.20594L38.1985 5.95938ZM37.6248 7.27297V7.09934H35.6921V7.27297H37.6248ZM37.6248 7.09934C37.6248 6.60497 37.6964 6.16512 37.83 5.77218L36.0002 5.15006C35.7916 5.7637 35.6921 6.416 35.6921 7.09934H37.6248ZM37.8309 5.76941C37.9656 5.36934 38.1529 5.04146 38.3858 4.7721L36.9241 3.50785C36.5128 3.98336 36.2069 4.53625 35.9993 5.15282L37.8309 5.76941ZM38.39 4.76723C38.6184 4.49965 38.8925 4.29377 39.2221 4.14527L38.4282 2.38322C37.8418 2.64742 37.3358 3.02536 36.9199 3.51272L38.39 4.76723ZM39.2301 4.14163C39.5458 3.99589 39.9184 3.91349 40.3652 3.91349V1.98085C39.6745 1.98085 39.0204 2.10983 38.4202 2.38686L39.2301 4.14163ZM40.3652 3.91349C40.8183 3.91349 41.1932 3.99639 41.5079 4.14163L42.3178 2.38686C41.7164 2.10933 41.0595 1.98085 40.3652 1.98085V3.91349ZM41.5195 4.14688C41.8539 4.29593 42.1289 4.5017 42.3555 4.76723L43.8256 3.51272C43.408 3.02331 42.8978 2.64526 42.3062 2.3816L41.5195 4.14688ZM42.3645 4.77769C42.6005 5.04633 42.7884 5.37235 42.9221 5.76941L44.7537 5.15282C44.5452 4.53324 44.2349 3.9785 43.8165 3.50226L42.3645 4.77769ZM42.923 5.77218C43.0566 6.16512 43.1283 6.60497 43.1283 7.09934H45.0609C45.0609 6.416 44.9614 5.7637 44.7528 5.15006L42.923 5.77218ZM43.1283 7.09934V7.27297H45.0609V7.09934H43.1283ZM43.1283 7.27297C43.1283 7.76734 43.0566 8.20719 42.923 8.60013L44.7528 9.22225C44.9614 8.60861 45.0609 7.95631 45.0609 7.27297H43.1283ZM42.923 8.60013C42.7895 8.99291 42.6005 9.32227 42.3603 9.59946L43.8208 10.8652C44.2348 10.3875 44.5441 9.83605 44.7528 9.22225L42.923 8.60013ZM42.3596 9.60021C42.1297 9.86605 41.8517 10.0755 41.5154 10.2307L42.3253 11.9854C42.905 11.7179 43.4071 11.3435 43.8214 10.8645L42.3596 9.60021ZM41.5198 10.2287C41.2104 10.3696 40.8368 10.4513 40.3803 10.4513V12.3839C41.0712 12.3839 41.7244 12.2592 42.321 11.9874L41.5198 10.2287ZM40.3803 10.4513C39.924 10.4513 39.5463 10.3697 39.2296 10.227L38.4357 11.9891C39.0351 12.2591 39.6891 12.3839 40.3803 12.3839V10.4513ZM39.2376 10.2307C38.9 10.0749 38.6174 9.86379 38.381 9.59462L36.9289 10.8701C37.3468 11.3457 37.8493 11.7185 38.4277 11.9854L39.2376 10.2307ZM38.39 9.60508C38.1529 9.32714 37.9646 8.99592 37.83 8.60013L36.0002 9.22225C36.2079 9.83305 36.5128 10.3826 36.9199 10.8596L38.39 9.60508ZM37.83 8.60013C37.6964 8.20719 37.6248 7.76734 37.6248 7.27297H35.6921C35.6921 7.95631 35.7916 8.60861 36.0002 9.22225L37.83 8.60013ZM37.0888 7.09934V7.27297H39.0214V7.09934H37.0888ZM37.0888 7.27297C37.0888 7.75663 37.1455 8.22505 37.2642 8.67459L39.1329 8.18147C39.0602 7.90627 39.0214 7.60465 39.0214 7.27297H37.0888ZM37.265 8.67783C37.3865 9.13159 37.5736 9.55196 37.8338 9.92854L39.4239 8.82996C39.3015 8.65293 39.2018 8.43915 39.132 8.17823L37.265 8.67783ZM37.8406 9.9382C38.1195 10.3315 38.4727 10.6495 38.8943 10.8821L39.8279 9.18996C39.6658 9.10048 39.5308 8.98061 39.4171 8.8203L37.8406 9.9382ZM38.9056 10.8883C39.3599 11.1311 39.8611 11.2364 40.3803 11.2364V9.30376C40.1245 9.30376 39.9462 9.25308 39.8166 9.18382L38.9056 10.8883ZM40.3803 11.2364C40.8963 11.2364 41.395 11.1303 41.846 10.8849L40.9227 9.18715C40.8 9.25388 40.6292 9.30376 40.3803 9.30376V11.2364ZM41.8512 10.8821C42.2752 10.6482 42.6287 10.3272 42.9041 9.92854L41.3141 8.82996C41.207 8.98496 41.0773 9.10181 40.9176 9.18996L41.8512 10.8821ZM42.9041 9.92854C43.1643 9.55196 43.3515 9.13159 43.4729 8.67783L41.6059 8.17823C41.5361 8.43915 41.4364 8.65293 41.3141 8.82996L42.9041 9.92854ZM43.4705 8.68666C43.5964 8.23333 43.6567 7.76076 43.6567 7.27297H41.7241C41.7241 7.60052 41.6837 7.89799 41.6083 8.1694L43.4705 8.68666ZM43.6567 7.27297V7.09934H41.7241V7.27297H43.6567ZM43.6567 7.09934C43.6567 6.61556 43.5962 6.14685 43.4695 5.69737L41.6093 6.22138C41.684 6.48659 41.7241 6.77785 41.7241 7.09934H43.6567ZM43.4738 5.71282C43.3516 5.25008 43.1598 4.82237 42.8898 4.44166L41.3133 5.55955C41.4359 5.73246 41.5359 5.94394 41.6051 6.20594L43.4738 5.71282ZM42.9012 4.45801C42.6263 4.05303 42.2718 3.72639 41.8436 3.49017L40.91 5.18235C41.0657 5.26823 41.1943 5.38449 41.3019 5.5432L42.9012 4.45801ZM41.8499 3.49364C41.3947 3.23812 40.8888 3.12835 40.3652 3.12835V5.061C40.6167 5.061 40.7851 5.11229 40.9038 5.17888L41.8499 3.49364ZM40.3652 3.12835C39.8437 3.12835 39.3415 3.23928 38.8868 3.49017L39.8204 5.18235C39.9495 5.11113 40.1216 5.061 40.3652 5.061V3.12835ZM38.8805 3.49364C38.4608 3.72926 38.1117 4.05223 37.8359 4.44836L39.4218 5.55285C39.5385 5.38529 39.6726 5.26537 39.8266 5.17888L38.8805 3.49364ZM37.8338 4.45132C37.5721 4.83008 37.3851 5.25448 37.2642 5.71282L39.1329 6.20594C39.2032 5.93953 39.303 5.72475 39.4239 5.54989L37.8338 4.45132ZM37.265 5.70957C37.1458 6.15523 37.0888 6.61975 37.0888 7.09934H39.0214C39.0214 6.77366 39.06 6.4782 39.132 6.20918L37.265 5.70957ZM47.2427 4.38155H48.209V4.36735L48.2086 4.35315L47.2427 4.38155ZM47.2427 11.2666V12.2329H48.209V11.2666H47.2427ZM45.8461 11.2666H44.8797V12.2329H45.8461V11.2666ZM45.8461 3.09816V2.13183H44.8797V3.09816H45.8461ZM47.2049 3.09816L48.1708 3.06975L48.1433 2.13183H47.2049V3.09816ZM49.7944 3.05286L50.7607 3.05848L50.7642 2.45738L50.2265 2.18856L49.7944 3.05286ZM49.7868 4.35136L49.5816 5.29562L50.7462 5.54881L50.7531 4.35697L49.7868 4.35136ZM49.4547 4.30606L49.3585 5.26759L49.3836 5.27009L49.4087 5.27129L49.4547 4.30606ZM47.22 5.51396L46.3228 5.15506L46.3191 5.16461L47.22 5.51396ZM47.0313 6.3293L47.5142 7.16631L47.9426 6.91914L47.9927 6.42706L47.0313 6.3293ZM46.6387 6.55578H45.6724V8.22888L47.1216 7.39279L46.6387 6.55578ZM46.7822 5.16669L45.8409 4.94779L45.8386 4.95823L46.7822 5.16669ZM47.2427 4.01918L48.0635 4.52911L48.0669 4.52357L47.2427 4.01918ZM48.0278 3.23405L48.5172 4.0673L48.5212 4.06494L48.0278 3.23405ZM49.5226 2.98492L49.3401 3.93385L49.3578 3.93726L49.3757 3.94L49.5226 2.98492ZM46.2764 4.38155V11.2666H48.209V4.38155H46.2764ZM47.2427 10.3003H45.8461V12.2329H47.2427V10.3003ZM46.8124 11.2666V3.09816H44.8797V11.2666H46.8124ZM45.8461 4.06448H47.2049V2.13183H45.8461V4.06448ZM46.239 3.12657L46.2768 4.40996L48.2086 4.35315L48.1708 3.06975L46.239 3.12657ZM48.8281 3.04724L48.8205 4.34574L50.7531 4.35697L50.7607 3.05848L48.8281 3.04724ZM49.9921 3.40709C49.83 3.37186 49.6658 3.3487 49.5006 3.34083L49.4087 5.27129C49.4549 5.27349 49.5121 5.28053 49.5816 5.29562L49.9921 3.40709ZM49.5508 3.34453C49.4105 3.33051 49.2616 3.32464 49.1074 3.32464V5.25728C49.2149 5.25728 49.2975 5.26148 49.3585 5.26759L49.5508 3.34453ZM49.1074 3.32464C48.6856 3.32464 48.2732 3.39052 47.8891 3.54728L48.6195 5.33662C48.7286 5.29206 48.8849 5.25728 49.1074 5.25728V3.32464ZM47.8891 3.54728C47.5238 3.6964 47.1974 3.913 46.9252 4.20122L48.3302 5.52822C48.4003 5.45406 48.4916 5.38882 48.6195 5.33662L47.8891 3.54728ZM46.9252 4.20122C46.6635 4.47824 46.4647 4.80048 46.3228 5.15508L48.1172 5.87285C48.1767 5.72416 48.2496 5.61356 48.3302 5.52822L46.9252 4.20122ZM46.3191 5.16461C46.1884 5.50158 46.1078 5.85926 46.0699 6.23153L47.9927 6.42706C48.0152 6.20545 48.0604 6.01957 48.121 5.86332L46.3191 5.16461ZM46.5484 5.49228L46.1558 5.71877L47.1216 7.39279L47.5142 7.16631L46.5484 5.49228ZM47.6051 6.55578C47.6051 6.12491 47.6468 5.73236 47.7257 5.37515L45.8386 4.95823C45.7263 5.46669 45.6724 6.00019 45.6724 6.55578H47.6051ZM47.7234 5.38558C47.8033 5.04184 47.92 4.76017 48.0635 4.5291L46.4219 3.50927C46.1527 3.94254 45.9623 4.42587 45.841 4.94781L47.7234 5.38558ZM48.0669 4.52357C48.1968 4.31139 48.3473 4.16709 48.5172 4.06729L47.5385 2.4008C47.0742 2.67344 46.7013 3.05257 46.4184 3.5148L48.0669 4.52357ZM48.5212 4.06494C48.6687 3.97732 48.8742 3.91349 49.1753 3.91349V1.98085C48.5907 1.98085 48.0311 2.10827 47.5345 2.40315L48.5212 4.06494ZM49.1753 3.91349C49.1988 3.91349 49.2514 3.91678 49.3401 3.93385L49.7051 2.03598C49.5321 2.00272 49.3532 1.98085 49.1753 1.98085V3.91349ZM49.3757 3.94C49.3983 3.94348 49.4162 3.94661 49.4299 3.94927C49.4438 3.95196 49.4516 3.9538 49.4543 3.95447C49.4574 3.95525 49.4514 3.95389 49.4386 3.94955C49.4319 3.94728 49.4222 3.94378 49.4099 3.93881C49.3978 3.93388 49.3815 3.92681 49.3622 3.91717L50.2265 2.18856C50.0276 2.0891 49.8018 2.05018 49.6695 2.02983L49.3757 3.94ZM53.5162 10.4211L54.4235 10.7537L54.4319 10.7308L54.4391 10.7075L53.5162 10.4211ZM55.7886 3.09816V2.13183H55.0767L54.8657 2.81177L55.7886 3.09816ZM57.2834 3.09816L58.1962 3.41533L58.6422 2.13183H57.2834V3.09816ZM54.0069 12.5274L54.9117 12.8666L54.9159 12.8556L54.9197 12.8445L54.0069 12.5274ZM53.705 13.1766L52.8559 12.7152L52.85 12.7261L52.8444 12.7371L53.705 13.1766ZM52.5424 14.3619L52.1232 13.4912L52.1134 13.4959L52.1037 13.5008L52.5424 14.3619ZM50.7985 14.4449L49.8322 14.4513L49.837 15.1752L50.533 15.374L50.7985 14.4449ZM50.7909 13.3125L50.9108 12.3536L49.8173 12.2169L49.8246 13.3189L50.7909 13.3125ZM50.9796 13.3276L51.0863 12.3672L51.0614 12.3644L51.0364 12.3629L50.9796 13.3276ZM51.9762 13.2143L51.6459 12.3062L51.6369 12.3095L51.6279 12.313L51.9762 13.2143ZM52.5348 12.7991L51.786 12.1883L51.7773 12.199L51.7689 12.21L52.5348 12.7991ZM52.9349 12.0064L52.0277 11.6738L52.022 11.6893L52.0168 11.705L52.9349 12.0064ZM51.8478 3.09816L52.7642 2.7916L52.5435 2.13183H51.8478V3.09816ZM53.9692 9.43965L54.9075 9.20868L54.8981 9.17044L54.8856 9.13309L53.9692 9.43965ZM54.3316 10.9118L54.7715 11.7722L55.4528 11.4238L55.2699 10.6808L54.3316 10.9118ZM53.3275 11.4251L52.4185 11.7531L52.7908 12.7848L53.7674 12.2855L53.3275 11.4251ZM50.3228 3.09816V2.13183H48.9469L49.4139 3.42614L50.3228 3.09816ZM54.4391 10.7075L56.7115 3.38454L54.8657 2.81177L52.5933 10.1347L54.4391 10.7075ZM55.7886 4.06448H57.2834V2.13183H55.7886V4.06448ZM56.3706 2.78098L53.0942 12.2102L54.9197 12.8445L58.1962 3.41533L56.3706 2.78098ZM53.1021 12.1881C53.0454 12.3393 52.9649 12.5146 52.8559 12.7152L54.554 13.638C54.6967 13.3756 54.8175 13.118 54.9117 12.8666L53.1021 12.1881ZM52.8444 12.7371C52.7649 12.8927 52.6588 13.0472 52.5203 13.2002L53.9535 14.4968C54.1976 14.227 54.4034 13.9336 54.5656 13.6161L52.8444 12.7371ZM52.5203 13.2002C52.4177 13.3136 52.289 13.4113 52.1232 13.4912L52.9616 15.2325C53.3393 15.0507 53.6736 14.8061 53.9535 14.4968L52.5203 13.2002ZM52.1037 13.5008C52.002 13.5527 51.84 13.5994 51.5836 13.5994V15.532C52.072 15.532 52.5493 15.4428 52.981 15.2229L52.1037 13.5008ZM51.5836 13.5994C51.5515 13.5994 51.4719 13.594 51.3288 13.5688L50.9929 15.472C51.192 15.5071 51.3943 15.532 51.5836 15.532V13.5994ZM51.3288 13.5688C51.2494 13.5548 51.1867 13.5428 51.139 13.5329C51.1153 13.5279 51.097 13.5238 51.0834 13.5206C51.0694 13.5173 51.0635 13.5156 51.0639 13.5158L50.533 15.374C50.6564 15.4093 50.8211 15.4417 50.9929 15.472L51.3288 13.5688ZM51.7648 14.4385L51.7572 13.306L49.8246 13.3189L49.8322 14.4513L51.7648 14.4385ZM50.671 14.2713C50.7446 14.2805 50.834 14.287 50.9229 14.2922L51.0364 12.3629C50.9982 12.3607 50.9681 12.3586 50.9453 12.3568C50.9341 12.3559 50.9254 12.3551 50.9192 12.3545C50.9127 12.3539 50.9102 12.3536 50.9108 12.3536L50.671 14.2713ZM50.8729 14.288C50.9606 14.2977 51.0729 14.309 51.1684 14.309V12.3764C51.1811 12.3764 51.1879 12.3768 51.1862 12.3767C51.1853 12.3766 51.1808 12.3764 51.1718 12.3757C51.1535 12.3742 51.1257 12.3715 51.0863 12.3672L50.8729 14.288ZM51.1684 14.309C51.5669 14.309 51.9615 14.256 52.3244 14.1157L51.6279 12.313C51.5479 12.3439 51.404 12.3764 51.1684 12.3764V14.309ZM52.3064 14.1225C52.7094 13.9759 53.0438 13.7224 53.3007 13.3883L51.7689 12.21C51.7239 12.2685 51.6858 12.2917 51.6459 12.3062L52.3064 14.1225ZM53.2836 13.41C53.5397 13.0961 53.7202 12.7125 53.853 12.3079L52.0168 11.705C51.9282 11.9748 51.842 12.1197 51.786 12.1883L53.2836 13.41ZM53.8422 12.3391L54.4235 10.7537L52.609 10.0884L52.0277 11.6738L53.8422 12.3391ZM50.9314 3.40472L53.0528 9.74621L54.8856 9.13309L52.7642 2.7916L50.9314 3.40472ZM53.0309 9.67062L53.3933 11.1427L55.2699 10.6808L54.9075 9.20868L53.0309 9.67062ZM53.8917 10.0514L52.8876 10.5648L53.7674 12.2855L54.7715 11.7722L53.8917 10.0514ZM54.2365 11.0972L51.2318 2.77017L49.4139 3.42614L52.4185 11.7531L54.2365 11.0972ZM50.3228 4.06448H51.8478V2.13183H50.3228V4.06448ZM8.36331 24.4611L9.2782 24.7722L9.27913 24.7694L8.36331 24.4611ZM9.10315 23.14L9.83406 23.7721L9.83822 23.7672L9.10315 23.14ZM10.2733 22.2642L10.6703 23.1453L10.6783 23.1416L10.2733 22.2642ZM13.361 22.2642L12.956 23.1417L12.9677 23.1469L13.361 22.2642ZM14.5387 23.14L13.8036 23.7673L13.8127 23.7777L14.5387 23.14ZM15.2861 24.4611L14.3703 24.7694L14.3712 24.7722L15.2861 24.4611ZM15.2861 27.9112L14.3712 27.6001L15.2861 27.9112ZM14.5387 29.2323L13.8085 28.5995L13.8078 28.6002L14.5387 29.2323ZM13.3686 30.1081L13.7692 30.9874L13.7735 30.9854L13.3686 30.1081ZM10.2809 30.1081L9.87589 30.9855L9.88391 30.9891L10.2809 30.1081ZM9.10315 29.2323L8.36801 29.8597L8.37714 29.8701L9.10315 29.2323ZM9.64671 27.428L8.71236 27.6746L8.71323 27.6778L9.64671 27.428ZM10.077 28.3793L9.28194 28.9286L9.28876 28.9382L10.077 28.3793ZM10.8093 29.0361L10.3425 29.8822L10.3538 29.8883L10.8093 29.0361ZM12.8326 29.0361L13.2942 29.885L13.2994 29.8821L12.8326 29.0361ZM13.5573 28.3793L14.3523 28.9285L13.5573 28.3793ZM13.9876 27.428L13.0565 27.1694L13.0541 27.1782L13.9876 27.428ZM13.9876 24.9594L13.0533 25.2059L13.0553 25.2137L13.0575 25.2214L13.9876 24.9594ZM13.5497 24.0006L12.7501 24.5432L12.7557 24.5514L12.7615 24.5596L13.5497 24.0006ZM12.825 23.3363L12.3519 24.1789L12.3582 24.1823L12.825 23.3363ZM10.8018 23.3363L10.3349 22.4901L10.3287 22.4936L10.8018 23.3363ZM10.077 24.0006L9.28405 23.4484L9.282 23.4513L10.077 24.0006ZM9.64671 24.9594L10.5802 25.2092L10.581 25.2059L9.64671 24.9594ZM9.07295 26.273V26.0993H7.14031V26.273H9.07295ZM9.07295 26.0993C9.07295 25.605 9.1446 25.1651 9.2782 24.7722L7.44842 24.1501C7.23978 24.7637 7.14031 25.416 7.14031 26.0993H9.07295ZM9.27913 24.7694C9.41381 24.3693 9.60108 24.0415 9.83404 23.7721L8.37226 22.5079C7.96101 22.9834 7.65505 23.5362 7.44749 24.1528L9.27913 24.7694ZM9.83822 23.7672C10.0666 23.4996 10.3407 23.2938 10.6703 23.1453L9.87636 21.3832C9.28996 21.6474 8.78396 22.0254 8.36808 22.5127L9.83822 23.7672ZM10.6783 23.1416C10.994 22.9959 11.3666 22.9135 11.8134 22.9135V20.9808C11.1227 20.9808 10.4686 21.1098 9.86836 21.3869L10.6783 23.1416ZM11.8134 22.9135C12.2665 22.9135 12.6414 22.9964 12.9561 23.1416L13.766 21.3869C13.1646 21.1093 12.5077 20.9808 11.8134 20.9808V22.9135ZM12.9677 23.1469C13.3021 23.2959 13.5771 23.5017 13.8036 23.7672L15.2738 22.5127C14.8562 22.0233 14.346 21.6453 13.7544 21.3816L12.9677 23.1469ZM13.8127 23.7777C14.0487 24.0463 14.2366 24.3723 14.3703 24.7694L16.2019 24.1528C15.9934 23.5332 15.683 22.9785 15.2647 22.5023L13.8127 23.7777ZM14.3712 24.7722C14.5048 25.1651 14.5765 25.605 14.5765 26.0993H16.5091C16.5091 25.416 16.4096 24.7637 16.201 24.1501L14.3712 24.7722ZM14.5765 26.0993V26.273H16.5091V26.0993H14.5765ZM14.5765 26.273C14.5765 26.7673 14.5048 27.2072 14.3712 27.6001L16.201 28.2223C16.4096 27.6086 16.5091 26.9563 16.5091 26.273H14.5765ZM14.3712 27.6001C14.2377 27.9929 14.0487 28.3223 13.8085 28.5995L15.269 29.8652C15.683 29.3875 15.9923 28.8361 16.201 28.2223L14.3712 27.6001ZM13.8078 28.6002C13.5779 28.8661 13.2999 29.0755 12.9636 29.2307L13.7735 30.9854C14.3532 30.7179 14.8553 30.3435 15.2696 29.8645L13.8078 28.6002ZM12.968 29.2287C12.6586 29.3696 12.285 29.4513 11.8285 29.4513V31.3839C12.5194 31.3839 13.1726 31.2592 13.7692 30.9874L12.968 29.2287ZM11.8285 29.4513C11.3722 29.4513 10.9945 29.3697 10.6778 29.227L9.88391 30.9891C10.4833 31.2591 11.1373 31.3839 11.8285 31.3839V29.4513ZM10.6858 29.2307C10.3482 29.0749 10.0656 28.8638 9.82917 28.5946L8.37714 29.8701C8.79498 30.3457 9.29754 30.7185 9.87591 30.9854L10.6858 29.2307ZM9.83822 28.6051C9.60105 28.3271 9.41277 27.9959 9.2782 27.6001L7.44842 28.2223C7.65609 28.833 7.96104 29.3826 8.36808 29.8596L9.83822 28.6051ZM9.2782 27.6001C9.1446 27.2072 9.07295 26.7673 9.07295 26.273H7.14031C7.14031 26.9563 7.23978 27.6086 7.44842 28.2223L9.2782 27.6001ZM8.53695 26.0993V26.273H10.4696V26.0993H8.53695ZM8.53695 26.273C8.53695 26.7566 8.59374 27.225 8.71237 27.6746L10.581 27.1815C10.5084 26.9063 10.4696 26.6047 10.4696 26.273H8.53695ZM8.71323 27.6778C8.83466 28.1316 9.02181 28.552 9.282 28.9285L10.872 27.83C10.7497 27.6529 10.65 27.4391 10.5802 27.1782L8.71323 27.6778ZM9.28876 28.9382C9.56766 29.3315 9.92086 29.6495 10.3425 29.8821L11.2761 28.19C11.1139 28.1005 10.979 27.9806 10.8653 27.8203L9.28876 28.9382ZM10.3538 29.8883C10.808 30.1311 11.3092 30.2364 11.8285 30.2364V28.3038C11.5726 28.3038 11.3944 28.2531 11.2648 28.1838L10.3538 29.8883ZM11.8285 30.2364C12.3445 30.2364 12.8432 30.1303 13.2942 29.8849L12.3709 28.1872C12.2482 28.2539 12.0774 28.3038 11.8285 28.3038V30.2364ZM13.2994 29.8821C13.7234 29.6482 14.0769 29.3272 14.3523 28.9285L12.7623 27.83C12.6552 27.985 12.5255 28.1018 12.3657 28.19L13.2994 29.8821ZM14.3523 28.9285C14.6125 28.552 14.7997 28.1316 14.9211 27.6778L13.0541 27.1782C12.9843 27.4391 12.8846 27.6529 12.7623 27.83L14.3523 28.9285ZM14.9187 27.6867C15.0446 27.2333 15.1049 26.7608 15.1049 26.273H13.1723C13.1723 26.6005 13.1319 26.898 13.0565 27.1694L14.9187 27.6867ZM15.1049 26.273V26.0993H13.1723V26.273H15.1049ZM15.1049 26.0993C15.1049 25.6156 15.0443 25.1468 14.9177 24.6974L13.0575 25.2214C13.1322 25.4866 13.1723 25.7778 13.1723 26.0993H15.1049ZM14.9219 24.7128C14.7998 24.2501 14.608 23.8224 14.338 23.4417L12.7615 24.5596C12.8841 24.7325 12.9841 24.9439 13.0533 25.2059L14.9219 24.7128ZM14.3494 23.458C14.0745 23.053 13.72 22.7264 13.2918 22.4902L12.3582 24.1823C12.5139 24.2682 12.6424 24.3845 12.7501 24.5432L14.3494 23.458ZM13.2981 22.4936C12.8429 22.2381 12.337 22.1284 11.8134 22.1284V24.061C12.0648 24.061 12.2333 24.1123 12.352 24.1789L13.2981 22.4936ZM11.8134 22.1284C11.2919 22.1284 10.7897 22.2393 10.335 22.4902L11.2686 24.1823C11.3977 24.1111 11.5698 24.061 11.8134 24.061V22.1284ZM10.3287 22.4936C9.90902 22.7293 9.55993 23.0522 9.28405 23.4484L10.87 24.5529C10.9867 24.3853 11.1208 24.2654 11.2748 24.1789L10.3287 22.4936ZM9.282 23.4513C9.02031 23.8301 8.83332 24.2545 8.71237 24.7128L10.581 25.2059C10.6513 24.9395 10.7512 24.7247 10.872 24.5499L9.282 23.4513ZM8.71323 24.7096C8.59397 25.1552 8.53695 25.6197 8.53695 26.0993H10.4696C10.4696 25.7737 10.5082 25.4782 10.5802 25.2092L8.71323 24.7096ZM18.6909 23.8421H19.6572V23.8212L19.6563 23.8003L18.6909 23.8421ZM18.6909 30.2666V31.2329H19.6572V30.2666H18.6909ZM17.2942 30.2666H16.3279V31.2329H17.2942V30.2666ZM17.2942 22.0982V21.1318H16.3279V22.0982H17.2942ZM18.6154 22.0982L19.5808 22.0564L19.5408 21.1318H18.6154V22.0982ZM18.3587 25.8729L18.3211 26.8384L19.325 26.8776V25.8729H18.3587ZM17.7774 25.8502L16.8111 25.8415L16.8027 26.7793L17.7398 26.8158L17.7774 25.8502ZM18.0265 24.3026L18.9413 24.614L18.9423 24.611L18.0265 24.3026ZM19.7478 22.2416L20.1624 23.1145L20.167 23.1123L19.7478 22.2416ZM22.1863 22.1133L21.8721 23.0272L21.885 23.0314L22.1863 22.1133ZM23.0091 22.6266L22.3111 23.2949L22.3185 23.3025L23.0091 22.6266ZM23.5376 23.5476L22.6172 23.8422L22.6184 23.8458L23.5376 23.5476ZM23.7188 30.2666V31.2329H24.6851V30.2666H23.7188ZM22.3146 30.2666H21.3483V31.2329H22.3146V30.2666ZM22.1259 23.8723L21.2549 24.291L21.2582 24.2976L22.1259 23.8723ZM21.5747 23.3061L21.1426 24.1704L21.1499 24.174L21.1572 24.1775L21.5747 23.3061ZM19.7327 23.3438L19.2945 22.4825L19.2883 22.4857L19.7327 23.3438ZM19.0004 23.9478L18.2472 23.3423L18.2401 23.3514L19.0004 23.9478ZM18.5248 24.831L17.6123 24.513L17.6095 24.5212L18.5248 24.831ZM17.7246 23.8421V30.2666H19.6572V23.8421H17.7246ZM18.6909 29.3003H17.2942V31.2329H18.6909V29.3003ZM18.2606 30.2666V22.0982H16.3279V30.2666H18.2606ZM17.2942 23.0645H18.6154V21.1318H17.2942V23.0645ZM17.65 22.14L17.7255 23.8839L19.6563 23.8003L19.5808 22.0564L17.65 22.14ZM18.3963 24.9073L17.815 24.8846L17.7398 26.8158L18.3211 26.8384L18.3963 24.9073ZM18.7437 25.8589C18.7479 25.3912 18.8171 24.9788 18.9413 24.614L17.1118 23.9912C16.9139 24.5725 16.817 25.1919 16.8111 25.8415L18.7437 25.8589ZM18.9423 24.611C19.0694 24.2337 19.2412 23.9256 19.4501 23.6735L17.9619 22.4404C17.5869 22.8929 17.3058 23.4152 17.1108 23.9941L18.9423 24.611ZM19.4501 23.6735C19.6546 23.4266 19.8904 23.2437 20.1624 23.1145L19.3332 21.3687C18.7999 21.622 18.3412 21.9826 17.9619 22.4404L19.4501 23.6735ZM20.167 23.1123C20.4324 22.9845 20.7378 22.9135 21.0991 22.9135V20.9808C20.474 20.9808 19.8785 21.1062 19.3286 21.3709L20.167 23.1123ZM21.0991 22.9135C21.4139 22.9135 21.6676 22.9568 21.8721 23.0271L22.5004 21.1994C22.0607 21.0483 21.5897 20.9808 21.0991 20.9808V22.9135ZM21.885 23.0314C22.0618 23.0894 22.1983 23.1771 22.3112 23.2949L23.7071 21.9583C23.367 21.6031 22.9549 21.3484 22.4875 21.1951L21.885 23.0314ZM22.3185 23.3025C22.426 23.4123 22.5333 23.5799 22.6172 23.8422L24.4579 23.2531C24.3003 22.7604 24.0553 22.314 23.6997 21.9507L22.3185 23.3025ZM22.6184 23.8458C22.6987 24.0934 22.7525 24.4416 22.7525 24.9141H24.6851C24.6851 24.3095 24.6181 23.7468 24.4568 23.2495L22.6184 23.8458ZM22.7525 24.9141V30.2666H24.6851V24.9141H22.7525ZM23.7188 29.3003H22.3146V31.2329H23.7188V29.3003ZM23.2809 30.2666V24.899H21.3483V30.2666H23.2809ZM23.2809 24.899C23.2809 24.3907 23.2084 23.8853 22.9935 23.4469L21.2582 24.2976C21.2949 24.3726 21.3483 24.5516 21.3483 24.899H23.2809ZM22.9968 23.4536C22.7843 23.0116 22.4492 22.6535 21.9923 22.4346L21.1572 24.1775C21.1835 24.1901 21.2158 24.2095 21.255 24.291L22.9968 23.4536ZM22.0069 22.4418C21.5967 22.2366 21.1423 22.1586 20.6839 22.1586V24.0912C20.9302 24.0912 21.0697 24.1339 21.1426 24.1704L22.0069 22.4418ZM20.6839 22.1586C20.1966 22.1586 19.7277 22.2622 19.2945 22.4825L20.1709 24.2051C20.3115 24.1335 20.4767 24.0912 20.6839 24.0912V22.1586ZM19.2883 22.4857C18.8826 22.6958 18.5346 22.9849 18.2473 23.3423L19.7535 24.5532C19.8789 24.3973 20.0191 24.2837 20.1771 24.2019L19.2883 22.4857ZM18.2401 23.3514C17.9681 23.6982 17.7603 24.0882 17.6123 24.513L19.4373 25.149C19.5208 24.9095 19.6301 24.7107 19.7608 24.5441L18.2401 23.3514ZM17.6095 24.5212C17.4629 24.9544 17.3924 25.4068 17.3924 25.8729H19.325C19.325 25.6041 19.3653 25.362 19.4401 25.1408L17.6095 24.5212ZM27.3576 18.6707H28.3239V17.7044H27.3576V18.6707ZM27.3576 30.2666V31.2329H28.3239V30.2666H27.3576ZM25.9534 30.2666H24.9871V31.2329H25.9534V30.2666ZM25.9534 18.6707V17.7044H24.9871V18.6707H25.9534ZM26.3913 18.6707V30.2666H28.3239V18.6707H26.3913ZM27.3576 29.3003H25.9534V31.2329H27.3576V29.3003ZM26.9197 30.2666V18.6707H24.9871V30.2666H26.9197ZM25.9534 19.6371H27.3576V17.7044H25.9534V19.6371ZM31.1172 22.0982H32.0835V21.1318H31.1172V22.0982ZM31.1172 30.2666V31.2329H32.0835V30.2666H31.1172ZM29.713 30.2666H28.7467V31.2329H29.713V30.2666ZM29.713 22.0982V21.1318H28.7467V22.0982H29.713ZM29.8111 19.3577L29.094 18.71L29.0882 18.7165L29.0825 18.7231L29.8111 19.3577ZM31.0417 19.3577L30.3246 20.0054L30.3302 20.0117L30.336 20.0179L31.0417 19.3577ZM31.0417 20.4901L30.336 19.83L30.3353 19.8308L31.0417 20.4901ZM29.8111 20.4901L29.0825 21.1248L29.0934 21.1373L29.1047 21.1495L29.8111 20.4901ZM30.1509 22.0982V30.2666H32.0835V22.0982H30.1509ZM31.1172 29.3003H29.713V31.2329H31.1172V29.3003ZM30.6793 30.2666V22.0982H28.7467V30.2666H30.6793ZM29.713 23.0645H31.1172V21.1318H29.713V23.0645ZM30.5736 19.9315C30.5736 19.9158 30.5758 19.9221 30.5688 19.9417C30.5655 19.9509 30.561 19.9608 30.5553 19.9705C30.5497 19.9801 30.5441 19.9875 30.5398 19.9924L29.0825 18.7231C28.7784 19.0722 28.641 19.4955 28.641 19.9315H30.5736ZM30.5282 20.0054C30.5111 20.0244 30.491 20.0419 30.4691 20.0567C30.4474 20.0713 30.4278 20.0806 30.4133 20.0861C30.3852 20.0967 30.3849 20.09 30.4302 20.09V18.1574C29.97 18.1574 29.4683 18.2957 29.094 18.71L30.5282 20.0054ZM30.4302 20.09C30.4709 20.09 30.4676 20.0961 30.4377 20.0847C30.4225 20.0788 30.4028 20.0693 30.3815 20.0549C30.36 20.0403 30.3407 20.0233 30.3246 20.0054L31.7588 18.71C31.3879 18.2994 30.8918 18.1574 30.4302 18.1574V20.09ZM30.336 20.0179C30.3272 20.0085 30.3132 19.9891 30.3031 19.9627C30.2933 19.9372 30.2943 19.9235 30.2943 19.9315H32.2269C32.2269 19.476 32.0715 19.0441 31.7474 18.6976L30.336 20.0179ZM30.2943 19.9315C30.2943 19.929 30.2952 19.909 30.3062 19.8809C30.3173 19.8525 30.3312 19.8351 30.336 19.83L31.7474 21.1503C32.0632 20.8127 32.2269 20.3895 32.2269 19.9315H30.2943ZM30.3353 19.8308C30.3525 19.8124 30.3723 19.7956 30.3936 19.7816C30.4148 19.7677 30.4336 19.759 30.4475 19.7538C30.4743 19.7439 30.4742 19.7503 30.4302 19.7503V21.6829C30.8823 21.6829 31.3749 21.5494 31.7481 21.1495L30.3353 19.8308ZM30.4302 19.7503C30.3817 19.7503 30.3786 19.7433 30.4036 19.7525C30.4167 19.7573 30.4355 19.7658 30.457 19.7798C30.4787 19.794 30.4994 19.8113 30.5176 19.8308L29.1047 21.1495C29.4812 21.5529 29.9794 21.6829 30.4302 21.6829V19.7503ZM30.5398 19.8555C30.5462 19.8628 30.5577 19.8792 30.566 19.9022C30.5742 19.9246 30.5736 19.9371 30.5736 19.9315H28.641C28.641 20.3695 28.7858 20.7842 29.0825 21.1248L30.5398 19.8555ZM34.756 23.8421H35.7223V23.8212L35.7214 23.8003L34.756 23.8421ZM34.756 30.2666V31.2329H35.7223V30.2666H34.756ZM33.3594 30.2666H32.393V31.2329H33.3594V30.2666ZM33.3594 22.0982V21.1318H32.393V22.0982H33.3594ZM34.6805 22.0982L35.6459 22.0564L35.6059 21.1318H34.6805V22.0982ZM34.4238 25.8729L34.3862 26.8384L35.3901 26.8776V25.8729H34.4238ZM33.8425 25.8502L32.8762 25.8415L32.8678 26.7793L33.8049 26.8158L33.8425 25.8502ZM34.0916 24.3026L35.0064 24.614L35.0074 24.611L34.0916 24.3026ZM35.8129 22.2416L36.2275 23.1145L36.2321 23.1123L35.8129 22.2416ZM38.2514 22.1133L37.9372 23.0272L37.9501 23.0314L38.2514 22.1133ZM39.0742 22.6266L38.3762 23.2949L38.3836 23.3025L39.0742 22.6266ZM39.6027 23.5476L38.6823 23.8422L38.6835 23.8458L39.6027 23.5476ZM39.7839 30.2666V31.2329H40.7502V30.2666H39.7839ZM38.3797 30.2666H37.4134V31.2329H38.3797V30.2666ZM38.191 23.8723L37.32 24.291L37.3233 24.2976L38.191 23.8723ZM37.6399 23.3061L37.2077 24.1704L37.215 24.174L37.2223 24.1775L37.6399 23.3061ZM35.7978 23.3438L35.3596 22.4825L35.3534 22.4857L35.7978 23.3438ZM35.0655 23.9478L34.3123 23.3423L34.3052 23.3514L35.0655 23.9478ZM34.5899 24.831L33.6774 24.513L33.6746 24.5212L34.5899 24.831ZM33.7897 23.8421V30.2666H35.7223V23.8421H33.7897ZM34.756 29.3003H33.3594V31.2329H34.756V29.3003ZM34.3257 30.2666V22.0982H32.393V30.2666H34.3257ZM33.3594 23.0645H34.6805V21.1318H33.3594V23.0645ZM33.7151 22.14L33.7906 23.8839L35.7214 23.8003L35.6459 22.0564L33.7151 22.14ZM34.4614 24.9073L33.8801 24.8846L33.8049 26.8158L34.3862 26.8384L34.4614 24.9073ZM34.8088 25.8589C34.813 25.3912 34.8822 24.9788 35.0064 24.614L33.1769 23.9912C32.979 24.5725 32.8821 25.1919 32.8762 25.8415L34.8088 25.8589ZM35.0074 24.611C35.1345 24.2337 35.3063 23.9256 35.5152 23.6735L34.027 22.4404C33.6521 22.8929 33.3709 23.4152 33.1759 23.9941L35.0074 24.611ZM35.5152 23.6735C35.7197 23.4266 35.9555 23.2437 36.2275 23.1145L35.3983 21.3687C34.8651 21.622 34.4063 21.9826 34.027 22.4404L35.5152 23.6735ZM36.2321 23.1123C36.4975 22.9845 36.8029 22.9135 37.1642 22.9135V20.9808C36.5392 20.9808 35.9436 21.1062 35.3937 21.3709L36.2321 23.1123ZM37.1642 22.9135C37.479 22.9135 37.7327 22.9568 37.9372 23.0271L38.5655 21.1994C38.1258 21.0483 37.6548 20.9808 37.1642 20.9808V22.9135ZM37.9501 23.0314C38.127 23.0894 38.2634 23.1771 38.3763 23.2949L39.7722 21.9583C39.4321 21.6031 39.02 21.3484 38.5526 21.1951L37.9501 23.0314ZM38.3836 23.3025C38.4911 23.4123 38.5984 23.5799 38.6824 23.8422L40.523 23.2531C40.3654 22.7604 40.1204 22.314 39.7648 21.9507L38.3836 23.3025ZM38.6835 23.8458C38.7638 24.0934 38.8176 24.4416 38.8176 24.9141H40.7502C40.7502 24.3095 40.6832 23.7468 40.5219 23.2495L38.6835 23.8458ZM38.8176 24.9141V30.2666H40.7502V24.9141H38.8176ZM39.7839 29.3003H38.3797V31.2329H39.7839V29.3003ZM39.346 30.2666V24.899H37.4134V30.2666H39.346ZM39.346 24.899C39.346 24.3907 39.2735 23.8853 39.0586 23.4469L37.3233 24.2976C37.36 24.3726 37.4134 24.5516 37.4134 24.899H39.346ZM39.0619 23.4536C38.8494 23.0116 38.5143 22.6535 38.0574 22.4346L37.2223 24.1775C37.2486 24.1901 37.2809 24.2095 37.3201 24.291L39.0619 23.4536ZM38.072 22.4418C37.6618 22.2366 37.2074 22.1586 36.749 22.1586V24.0912C36.9953 24.0912 37.1348 24.1339 37.2077 24.1704L38.072 22.4418ZM36.749 22.1586C36.2617 22.1586 35.7928 22.2622 35.3596 22.4825L36.236 24.2051C36.3766 24.1335 36.5418 24.0912 36.749 24.0912V22.1586ZM35.3534 22.4857C34.9477 22.6958 34.5997 22.9849 34.3124 23.3423L35.8186 24.5532C35.944 24.3973 36.0842 24.2837 36.2422 24.2019L35.3534 22.4857ZM34.3052 23.3514C34.0332 23.6982 33.8254 24.0882 33.6774 24.513L35.5024 25.149C35.5859 24.9095 35.6952 24.7107 35.8259 24.5441L34.3052 23.3514ZM33.6746 24.5212C33.528 24.9544 33.4575 25.4068 33.4575 25.8729H35.3901C35.3901 25.6041 35.4304 25.362 35.5052 25.1408L33.6746 24.5212ZM43.7473 30.1307L43.3666 31.019L43.3784 31.0238L43.7473 30.1307ZM42.5621 29.3078L41.8539 29.9654L41.859 29.9707L42.5621 29.3078ZM41.8071 28.0546L40.8993 28.3856L41.8071 28.0546ZM41.8373 24.3781L42.741 24.7203L42.7421 24.7174L41.8373 24.3781ZM42.6376 23.0494L41.9301 22.3911L42.6376 23.0494ZM43.7851 22.2265L44.1707 23.1125L43.7851 22.2265ZM46.6236 22.2491L46.2082 23.1216L46.2122 23.1235L46.6236 22.2491ZM47.673 23.0947L46.8999 23.6745L46.9039 23.6797L47.673 23.0947ZM48.277 24.363L47.3436 24.6132L47.3442 24.6156L48.277 24.363ZM48.4732 26.5749V27.5413H49.4396V26.5749H48.4732ZM42.3733 26.5749H41.407V27.5413H42.3733V26.5749ZM42.3733 25.435V24.4687H41.407V25.435H42.3733ZM47.0766 25.435V26.4013H48.0429V25.435H47.0766ZM47.0766 25.3293H48.0429V25.3025L48.0414 25.2757L47.0766 25.3293ZM46.8501 24.2724L45.9431 24.6059L45.9475 24.6175L46.8501 24.2724ZM44.238 23.2985L44.6636 24.1661L44.6702 24.1629L44.6767 24.1595L44.238 23.2985ZM43.1056 27.5639L42.1823 27.8491L42.1849 27.8572L42.1875 27.8654L43.1056 27.5639ZM43.5812 28.4547L42.8281 29.0602L42.8353 29.069L43.5812 28.4547ZM44.3437 29.0587L43.9174 29.9259L43.9232 29.9287L44.3437 29.0587ZM47.522 28.1679L48.1232 27.4113L47.3507 26.7975L46.7531 27.5826L47.522 28.1679ZM48.3675 28.8398L49.1739 29.3723L49.6616 28.6338L48.9687 28.0832L48.3675 28.8398ZM46.6916 30.1911L46.3485 29.2877L46.3447 29.2892L46.6916 30.1911ZM45.2949 29.4513C44.8358 29.4513 44.4475 29.3744 44.1162 29.2376L43.3784 31.0238C43.9732 31.2695 44.6167 31.3839 45.2949 31.3839V29.4513ZM44.128 29.2425C43.7881 29.0969 43.5038 28.898 43.2651 28.6449L41.859 29.9707C42.2847 30.4223 42.7905 30.772 43.3667 31.0189L44.128 29.2425ZM43.2702 28.6503C43.0367 28.3989 42.8501 28.0943 42.715 27.7236L40.8993 28.3856C41.1164 28.9813 41.4331 29.5122 41.8539 29.9654L43.2702 28.6503ZM42.715 27.7236C42.5817 27.3581 42.5092 26.9431 42.5092 26.4693H40.5766C40.5766 27.1429 40.6802 27.7848 40.8993 28.3856L42.715 27.7236ZM42.5092 26.4693V26.1522H40.5766V26.4693H42.5092ZM42.5092 26.1522C42.5092 25.5821 42.5935 25.11 42.741 24.7203L40.9336 24.0359C40.6886 24.6829 40.5766 25.3935 40.5766 26.1522H42.5092ZM42.7421 24.7174C42.8998 24.2969 43.1042 23.9664 43.345 23.7077L41.9301 22.3911C41.4965 22.8571 41.1674 23.4124 40.9325 24.0388L42.7421 24.7174ZM43.345 23.7077C43.5973 23.4365 43.872 23.2425 44.1707 23.1125L43.3994 21.3405C42.8425 21.5829 42.3522 21.9375 41.9301 22.3911L43.345 23.7077ZM44.1707 23.1125C44.4792 22.9782 44.791 22.9135 45.1138 22.9135V20.9808C44.5205 20.9808 43.9465 21.1023 43.3994 21.3405L44.1707 23.1125ZM45.1138 22.9135C45.5884 22.9135 45.9432 22.9954 46.2082 23.1216L47.0391 21.3767C46.4586 21.1003 45.8067 20.9808 45.1138 20.9808V22.9135ZM46.2122 23.1235C46.5037 23.2607 46.727 23.4439 46.8999 23.6745L48.4461 22.5149C48.0754 22.0207 47.5992 21.6403 47.0351 21.3748L46.2122 23.1235ZM46.9039 23.6797C47.0907 23.9253 47.2411 24.231 47.3436 24.6132L49.2103 24.1128C49.0511 23.5186 48.7989 22.9787 48.4421 22.5097L46.9039 23.6797ZM47.3442 24.6156C47.4498 25.0054 47.5069 25.4477 47.5069 25.9483H49.4396C49.4396 25.3015 49.3658 24.6869 49.2097 24.1104L47.3442 24.6156ZM47.5069 25.9483V26.5749H49.4396V25.9483H47.5069ZM48.4732 25.6086H42.3733V27.5413H48.4732V25.6086ZM43.3397 26.5749V25.435H41.407V26.5749H43.3397ZM42.3733 26.4013H47.0766V24.4687H42.3733V26.4013ZM48.0429 25.435V25.3293H46.1103V25.435H48.0429ZM48.0414 25.2757C48.0157 24.8126 47.9189 24.362 47.7527 23.9273L45.9475 24.6175C46.043 24.8673 46.0972 25.1213 46.1118 25.3829L48.0414 25.2757ZM47.7571 23.9389C47.5723 23.4363 47.2683 23.0071 46.8498 22.6723L45.6425 24.1814C45.7776 24.2895 45.8763 24.424 45.9431 24.6058L47.7571 23.9389ZM46.8498 22.6723C46.3503 22.2727 45.735 22.1284 45.1138 22.1284V24.061C45.4488 24.061 45.5884 24.1381 45.6425 24.1814L46.8498 22.6723ZM45.1138 22.1284C44.6535 22.1284 44.21 22.2283 43.7994 22.4375L44.6767 24.1595C44.7995 24.097 44.9399 24.061 45.1138 24.061V22.1284ZM43.8124 22.431C43.3926 22.6369 43.0459 22.9409 42.7708 23.3172L44.3312 24.4575C44.4387 24.3104 44.5499 24.2218 44.6636 24.1661L43.8124 22.431ZM42.7708 23.3172C42.4987 23.6896 42.3056 24.1194 42.1751 24.5856L44.0362 25.1067C44.117 24.8179 44.2208 24.6086 44.3312 24.4575L42.7708 23.3172ZM42.1751 24.5856C42.0405 25.0664 41.9808 25.5925 41.9808 26.1522H43.9134C43.9134 25.7254 43.9594 25.3808 44.0362 25.1067L42.1751 24.5856ZM41.9808 26.1522V26.4693H43.9134V26.1522H41.9808ZM41.9808 26.4693C41.9808 26.9456 42.0459 27.4072 42.1823 27.8491L44.0289 27.2788C43.954 27.0361 43.9134 26.768 43.9134 26.4693H41.9808ZM42.1875 27.8654C42.3317 28.3044 42.5435 28.7061 42.8281 29.0602L44.3344 27.8493C44.2063 27.69 44.101 27.4979 44.0237 27.2625L42.1875 27.8654ZM42.8353 29.069C43.1336 29.4313 43.4966 29.719 43.9175 29.9259L44.77 28.1915C44.597 28.1064 44.4516 27.9916 44.3272 27.8404L42.8353 29.069ZM43.9232 29.9287C44.3736 30.1464 44.8628 30.244 45.3704 30.244V28.3113C45.1131 28.3113 44.9178 28.2629 44.7642 28.1887L43.9232 29.9287ZM45.3704 30.244C45.9946 30.244 46.5908 30.1161 47.1136 29.8086L46.1337 28.1427C45.972 28.2379 45.7328 28.3113 45.3704 28.3113V30.244ZM47.1136 29.8086C47.5711 29.5394 47.9634 29.1834 48.2909 28.7532L46.7531 27.5826C46.5673 27.8267 46.3606 28.0093 46.1337 28.1427L47.1136 29.8086ZM46.9208 28.9244L47.7664 29.5963L48.9687 28.0832L48.1232 27.4113L46.9208 28.9244ZM47.5612 28.3073C47.4372 28.495 47.2711 28.6868 47.0537 28.88L48.3376 30.3245C48.6638 30.0346 48.9456 29.718 49.1739 29.3723L47.5612 28.3073ZM47.0537 28.88C46.8832 29.0315 46.6546 29.1715 46.3485 29.2877L47.0346 31.0945C47.5238 30.9087 47.9645 30.6561 48.3376 30.3245L47.0537 28.88ZM46.3447 29.2892C46.089 29.3875 45.7466 29.4513 45.2949 29.4513V31.3839C45.9203 31.3839 46.509 31.2967 47.0385 31.093L46.3447 29.2892Z" fill="white"/>
</svg>
