<?xml version="1.0" encoding="UTF-8"?>
<svg xmlns="http://www.w3.org/2000/svg" xmlns:xlink="http://www.w3.org/1999/xlink" viewBox="0 0 24 24" width="24px" height="24px">
<g id="surface251149018">
<path style=" stroke:none;fill-rule:nonzero;fill:rgb(80.000001%,80.000001%,80.000001%);fill-opacity:1;" d="M 12 24 C 5.371094 24 0 18.628906 0 12 C 0 5.371094 5.371094 0 12 0 C 18.628906 0 24 5.371094 24 12 C 24 18.628906 18.628906 24 12 24 Z M 12 24 "/>
<path style=" stroke:none;fill-rule:nonzero;fill:rgb(100%,100%,100%);fill-opacity:1;" d="M 19.90625 7.203125 C 19.714844 6.492188 19.15625 5.933594 18.445312 5.746094 C 17.160156 5.398438 12 5.398438 12 5.398438 C 12 5.398438 6.839844 5.398438 5.554688 5.746094 C 4.84375 5.933594 4.285156 6.492188 4.09375 7.203125 C 3.75 8.492188 3.75 12 3.75 12 C 3.75 12 3.75 15.507812 4.09375 16.796875 C 4.285156 17.507812 4.84375 18.066406 5.554688 18.253906 C 6.839844 18.601562 12 18.601562 12 18.601562 C 12 18.601562 17.160156 18.601562 18.445312 18.253906 C 19.15625 18.066406 19.714844 17.507812 19.90625 16.796875 C 20.25 15.507812 20.25 12 20.25 12 C 20.25 12 20.25 8.492188 19.90625 7.203125 Z M 10.351562 14.144531 L 10.351562 9.855469 C 10.351562 9.539062 10.695312 9.339844 10.96875 9.5 L 14.679688 11.644531 C 14.957031 11.800781 14.957031 12.199219 14.679688 12.355469 L 10.96875 14.5 C 10.695312 14.660156 10.351562 14.460938 10.351562 14.144531 Z M 10.351562 14.144531 "/>
</g>
</svg>
