<?xml version="1.0" encoding="UTF-8"?>
<svg xmlns="http://www.w3.org/2000/svg" xmlns:xlink="http://www.w3.org/1999/xlink" viewBox="0 0 30 30" width="30px" height="30px">
<g id="surface250698414">
<path style=" stroke:none;fill-rule:nonzero;fill:rgb(76.862746%,76.862746%,76.862746%);fill-opacity:1;" d="M 15 2 C 7.832031 2 2 7.832031 2 15 C 2 22.167969 7.832031 28 15 28 C 22.167969 28 28 22.167969 28 15 C 28 7.832031 22.167969 2 15 2 Z M 11.667969 6 L 18.332031 6 C 21.457031 6 24 8.542969 24 11.667969 L 24 18.332031 C 24 21.457031 21.457031 24 18.335938 24 L 11.667969 24 C 8.542969 24 6 21.457031 6 18.335938 L 6 11.667969 C 6 8.542969 8.542969 6 11.667969 6 Z M 11.667969 8 C 9.644531 8 8 9.644531 8 11.667969 L 8 18.335938 C 8 20.355469 9.644531 22 11.667969 22 L 18.335938 22 C 20.355469 22 22 20.355469 22 18.332031 L 22 11.667969 C 22 9.644531 20.355469 8 18.332031 8 Z M 19.667969 9.667969 C 20.035156 9.667969 20.332031 9.964844 20.332031 10.332031 C 20.332031 10.699219 20.035156 11 19.667969 11 C 19.300781 11 19 10.699219 19 10.332031 C 19 9.964844 19.300781 9.667969 19.667969 9.667969 Z M 15 10 C 17.757812 10 20 12.242188 20 15 C 20 17.757812 17.757812 20 15 20 C 12.242188 20 10 17.757812 10 15 C 10 12.242188 12.242188 10 15 10 Z M 15 12 C 13.34375 12 12 13.34375 12 15 C 12 16.65625 13.34375 18 15 18 C 16.65625 18 18 16.65625 18 15 C 18 13.34375 16.65625 12 15 12 Z M 15 12 "/>
</g>
</svg>
