<svg width="31" height="31" viewBox="0 0 31 31" fill="none" xmlns="http://www.w3.org/2000/svg">
<path d="M30.9831 15.3316C30.9831 7.04137 24.2305 0.288818 15.9403 0.288818C7.65001 0.288818 0.897461 7.04137 0.897461 15.3316C0.897461 20.3125 3.33774 24.7585 7.11516 27.4996C7.18201 27.5665 7.24887 27.5999 7.31573 27.6333C9.75601 29.3716 12.7311 30.3744 15.9403 30.3744C19.1494 30.3744 22.1245 29.3716 24.5648 27.6333C24.6317 27.5999 24.6985 27.533 24.7654 27.4996C28.5428 24.7585 30.9831 20.3125 30.9831 15.3316ZM8.25172 26.6639V26.0287C8.25172 21.7833 11.6949 18.3402 15.9403 18.3402C20.1857 18.3402 23.6288 21.7833 23.6288 26.0287V26.6639C21.4225 28.1682 18.7817 29.0373 15.9403 29.0373C13.0989 29.0373 10.458 28.1682 8.25172 26.6639ZM11.9289 12.9916C11.9289 10.7854 13.734 8.98022 15.9403 8.98022C18.1466 8.98022 19.9517 10.7854 19.9517 12.9916C19.9517 15.1979 18.1466 17.0031 15.9403 17.0031C13.734 17.0031 11.9289 15.1979 11.9289 12.9916ZM24.966 25.6276C24.7988 21.8168 22.2917 18.6411 18.8486 17.4711C20.3194 16.5351 21.2888 14.8636 21.2888 12.9916C21.2888 10.0499 18.882 7.64308 15.9403 7.64308C12.9986 7.64308 10.5917 10.0499 10.5917 12.9916C10.5917 14.8636 11.5611 16.5351 13.032 17.4711C9.58886 18.6411 7.08173 21.8502 6.91459 25.6276C4.03974 23.1205 2.2346 19.4433 2.2346 15.3316C2.2346 7.7768 8.38544 1.62596 15.9403 1.62596C23.4951 1.62596 29.6459 7.7768 29.6459 15.3316C29.6459 19.4433 27.8408 23.1205 24.966 25.6276Z" fill="#FE9013"/>
</svg>
